<svg width="46" height="58" viewBox="0 0 46 58" fill="none" xmlns="http://www.w3.org/2000/svg"><path fill-rule="evenodd" clip-rule="evenodd" d="M14.6784 49.3254C15.1462 53.731 18.5965 57.1924 22.8655 57.1924C27.1345 57.1924 30.5848 53.731 31.0526 49.3254H41.1696C43.6842 49.3254 45.731 47.1227 45.731 44.4164C45.731 41.7102 43.9181 39.7591 41.5789 39.5074C39.5906 37.1788 38.421 34.1578 38.421 30.9481V20.7524C38.421 13.2001 33.8012 6.84354 27.4269 4.76665V3.06737C27.4269 1.43103 26.1988 0.109375 24.6784 0.109375H21.0526C19.5322 0.109375 18.3041 1.43103 18.3041 3.06737V4.76665C11.9298 6.84354 7.30994 13.2001 7.30994 20.7524V30.9481C7.30994 34.0949 6.19883 37.1788 4.15205 39.5074C1.81287 39.6962 0 41.836 0 44.4164C0 46.9968 2.04678 49.3254 4.5614 49.3254H14.6784ZM16.5497 49.3254C17.0175 52.661 19.6491 55.2414 22.8655 55.2414C26.0819 55.2414 28.7719 52.661 29.1813 49.3254H16.4912H16.5497ZM43.8596 44.4164C43.8596 42.7801 42.6316 41.4584 41.1111 41.4584H4.5614C3.04094 41.4584 1.81287 42.7801 1.81287 44.4164C1.81287 46.0527 3.04094 47.3744 4.5614 47.3744H41.1111C42.6316 47.3744 43.8596 46.0527 43.8596 44.4164ZM39.1813 39.5074C37.4854 37.0529 36.6082 34.0949 36.6082 31.011V20.8154C36.6082 13.9553 32.2222 8.1652 26.3158 6.52886C25.9064 6.40299 25.614 6.02537 25.614 5.58482V3.13031C25.614 2.56388 25.2047 2.12333 24.6784 2.12333H21.0526C20.5263 2.12333 20.117 2.56388 20.117 3.13031V5.58482C20.117 6.02537 19.8246 6.40299 19.4152 6.52886C13.5088 8.1652 9.12281 13.9553 9.12281 20.8154V31.011C9.12281 34.0949 8.18713 37.0529 6.54971 39.5074H39.1228H39.1813Z" fill="white"/></svg>