<svg width="39" height="31" viewBox="0 0 39 31" fill="none" xmlns="http://www.w3.org/2000/svg">
<g clip-path="url(#clip0_336_2710)">
<path d="M5.09647 0.996594C6.07804 1.05029 7.28474 0.880244 8.47343 1.11294C9.64411 1.33669 10.6347 1.87369 11.3191 2.89399C13.3453 5.88329 15.3804 8.86364 17.4156 11.8529C17.9469 12.6316 18.4692 13.4102 18.9825 14.1978C19.3968 14.8243 19.3788 15.4598 18.9555 16.0773C17.6047 18.0642 16.245 20.0422 14.8852 22.0291C13.6785 23.7922 12.4718 25.5554 11.2651 27.3096C10.8688 27.8913 10.4816 28.4731 10.0674 29.0369C9.21186 30.2004 7.95113 30.6569 6.59134 30.7195C4.85332 30.8001 3.11531 30.7464 1.3683 30.7464C0.728925 30.7464 0.467773 30.4779 0.467773 29.8335C0.467773 28.4373 0.467773 27.0321 0.467773 25.6359C0.467773 24.9736 0.728925 24.723 1.40432 24.723C2.34987 24.7141 3.29542 24.7141 4.24097 24.723C4.48411 24.723 4.6462 24.6514 4.79929 24.4366C6.74442 21.5905 8.69856 18.7444 10.6617 15.9162C10.8238 15.6835 10.8238 15.5314 10.6617 15.2987C9.32893 13.3834 8.01416 11.4681 6.6994 9.54384C6.1951 8.80994 5.69081 8.09394 5.20453 7.36004C5.05144 7.13629 4.88935 7.03784 4.61919 7.03784C3.7817 7.04679 2.39489 7.04679 1.55741 7.03784C0.927041 7.03784 0.53081 6.72459 0.521805 6.11599C0.494789 4.70189 0.494789 3.27884 0.521805 1.86474C0.53081 1.30984 0.90903 1.00554 1.45835 1.00554C2.42191 0.996594 3.92579 0.996594 5.09647 0.996594Z" fill="#0083CA"/>
</g>
<g clip-path="url(#clip1_336_2710)">
<path d="M24.4571 0.996594C25.4386 1.05029 26.6453 0.880244 27.834 1.11294C29.0047 1.33669 29.9953 1.87369 30.6797 2.89399C32.7059 5.88329 34.741 8.86364 36.7762 11.8529C37.3075 12.6316 37.8298 13.4102 38.3431 14.1978C38.7574 14.8243 38.7394 15.4598 38.3161 16.0773C36.9653 18.0642 35.6055 20.0422 34.2458 22.0291C33.0391 23.7922 31.8324 25.5554 30.6256 27.3096C30.2294 27.8913 29.8422 28.4731 29.428 29.0369C28.5725 30.2004 27.3117 30.6569 25.9519 30.7195C24.2139 30.8001 22.4759 30.7464 20.7289 30.7464C20.0895 30.7464 19.8284 30.4779 19.8284 29.8335C19.8284 28.4373 19.8284 27.0321 19.8284 25.6359C19.8284 24.9736 20.0895 24.723 20.7649 24.723C21.7105 24.7141 22.656 24.7141 23.6016 24.723C23.8447 24.723 24.0068 24.6514 24.1599 24.4366C26.105 21.5905 28.0592 18.7444 30.0223 15.9162C30.1844 15.6835 30.1844 15.5314 30.0223 15.2987C28.6895 13.3834 27.3748 11.4681 26.06 9.54384C25.5557 8.80994 25.0514 8.09394 24.5651 7.36004C24.412 7.13629 24.2499 7.03784 23.9798 7.03784C23.1423 7.04679 21.7555 7.04679 20.918 7.03784C20.2876 7.03784 19.8914 6.72459 19.8824 6.11599C19.8554 4.70189 19.8554 3.27884 19.8824 1.86474C19.8914 1.30984 20.2696 1.00554 20.8189 1.00554C21.7825 0.996594 23.2864 0.996594 24.4571 0.996594Z" fill="#005988"/>
</g>
<defs>
<clipPath id="clip0_336_2710">
<rect width="18.8119" height="29.7856" fill="white" transform="translate(0.467773 0.988281)"/>
</clipPath>
<clipPath id="clip1_336_2710">
<rect width="18.8119" height="29.7856" fill="white" transform="translate(19.8284 0.988281)"/>
</clipPath>
</defs>
</svg>