<svg width="34" height="64" viewBox="0 0 34 64" fill="none" xmlns="http://www.w3.org/2000/svg">
<g clip-path="url(#clip0_336_2351)">
<path d="M15.8209 17.8105C15.8332 17.7677 15.8496 17.7228 15.864 17.68C16.4761 15.795 13.5265 14.8473 12.9123 16.7344C12.0948 19.2492 11.2772 21.7619 10.4597 24.2767L13.4155 25.2223C14.2331 22.7564 15.0855 20.2967 15.8209 17.8084V17.8105Z" fill="#41B17E"/>
<path d="M10.2029 15.5437C10.2317 15.4806 10.2584 15.4153 10.283 15.344C10.9404 13.3224 11.5977 11.2988 12.257 9.2772C12.6658 8.01778 13.0191 7.17613 13.8941 6.11846C13.9085 6.1042 14.0215 5.97377 14.0482 5.94524C14.1201 5.86984 14.192 5.79444 14.2659 5.72107C14.4323 5.556 14.6048 5.39705 14.7815 5.2442C15.1964 4.88757 15.4408 4.71843 15.7798 4.51667C16.6651 3.9909 17.2381 3.76469 18.1419 3.55682C19.132 3.33062 19.7441 3.29394 20.8143 3.40398C21.4942 3.47327 22.4165 3.72597 23.2627 4.08668C23.5626 4.21507 23.3942 4.14985 23.3305 4.11725C23.4271 4.16616 23.5236 4.21507 23.6181 4.26805C23.8523 4.39644 24.0823 4.53502 24.3062 4.68174C24.4829 4.7979 24.6554 4.92222 24.8238 5.0506C24.8875 5.09951 24.9491 5.14842 25.0108 5.19937C25.0251 5.21567 25.2121 5.37667 25.2388 5.40316C25.5797 5.72311 25.8961 6.06955 26.1857 6.43841C26.2309 6.49751 26.4445 6.79504 26.4425 6.78485C26.5739 6.98661 26.6992 7.19447 26.8142 7.40437C27.9604 9.49526 28.0261 11.6677 27.2949 13.9195C26.1816 17.3391 25.0703 20.7607 23.957 24.1803C23.5236 25.5152 23.0902 26.8479 22.6547 28.1828L25.6064 29.1284C25.9392 28.1074 26.2699 27.0884 26.6027 26.0674C27.8064 22.3646 29.0121 18.6597 30.2158 14.9568C31.0703 12.3259 31.1052 9.64198 30.0679 7.05182C28.4698 3.05958 24.3884 0.318606 20.0687 0.277849C15.5867 0.235053 11.5586 2.91692 9.79007 6.97641C9.39363 7.88532 9.13071 8.86147 8.82466 9.80094C8.46725 10.8973 8.11189 11.9958 7.75448 13.0921C7.72573 13.1553 7.69902 13.2205 7.67437 13.2919C6.94107 15.5437 6.20982 17.7976 5.47651 20.0495C5.2177 20.8443 4.95889 21.6411 4.70007 22.4359L7.65178 23.3815C8.50217 20.7689 9.3505 18.1563 10.2009 15.5458L10.2029 15.5437Z" fill="#41B17E"/>
<path d="M18.789 40.072C17.8483 42.9658 16.8479 45.8474 15.9503 48.7535C15.9298 48.8003 15.9113 48.8472 15.8949 48.8982C15.2725 50.8117 14.6501 52.7253 14.0277 54.6389C13.7668 55.4418 13.5121 56.2448 13.2451 57.0457C12.8158 58.3295 11.9818 59.3383 10.7535 59.9436C10.0592 60.2859 9.30949 60.453 8.56592 60.4388C8.32353 60.4347 8.08526 60.4123 7.84288 60.3858C7.82645 60.3858 7.75866 60.3715 7.71553 60.3634C7.62515 60.343 7.53682 60.3226 7.4485 60.3002C7.28623 60.2574 7.12601 60.2085 6.96784 60.1535C6.86309 60.1168 6.76038 60.074 6.65768 60.0353C6.60427 60.0169 6.5673 60.0027 6.54265 59.9945C6.52006 59.9802 6.48719 59.9619 6.43995 59.9354C5.60599 59.4708 5.2075 59.1569 4.65701 58.4172C4.64469 58.3988 4.58101 58.3092 4.57074 58.2908C4.50296 58.1808 4.43722 58.0707 4.3756 57.9566C4.27701 57.7752 4.18868 57.5898 4.10446 57.4003C4.0983 57.386 4.06544 57.3024 4.04284 57.2413C4.0223 57.1659 3.95041 56.9356 3.95863 56.9642C3.897 56.7379 3.85387 56.5097 3.81073 56.2794C3.80457 56.2427 3.78403 56.0756 3.77787 56.0512C3.77376 55.9737 3.76965 55.8943 3.76965 55.8168C3.76554 55.6049 3.7717 55.3929 3.79019 55.181C3.79635 55.1015 3.85798 54.7123 3.84565 54.7388C3.89084 54.5391 3.94425 54.3434 4.00587 54.1498C4.02025 54.1009 4.03668 54.052 4.05311 54.0051C4.16609 53.6526 4.28112 53.302 4.39614 52.9495C5.62448 49.1712 6.85282 45.393 8.08321 41.6147C9.72031 36.5791 11.3574 31.5434 12.9966 26.5098C13.1362 26.0819 13.278 25.6519 13.4197 25.2239L10.4639 24.2783C10.4495 24.3252 10.4331 24.37 10.4187 24.4169C8.74462 29.5646 7.07055 34.7124 5.39648 39.8621C4.09419 43.8666 2.79191 47.869 1.48963 51.8735C1.05006 53.2246 0.594051 54.5492 0.686485 56.0023C0.972001 60.5447 4.98566 63.9338 9.55393 63.4549C11.6696 63.2327 13.5676 62.0997 14.8904 60.4714C15.6504 59.536 16.0633 58.4294 16.4289 57.3024C17.1294 55.1525 17.8277 53.0004 18.5282 50.8505C18.5651 50.7751 18.6001 50.6976 18.6288 50.61L21.332 42.2974C22.7596 37.9078 24.1872 33.5161 25.6147 29.1265L22.663 28.1809C21.3731 32.1446 20.0852 36.1083 18.7952 40.072H18.789Z" fill="#41B17E"/>
</g>
<defs>
<clipPath id="clip0_336_2351">
<rect width="32.7009" height="63.2217" fill="white" transform="translate(0.667969 0.27832)"/>
</clipPath>
</defs>
</svg>