<svg width="34" height="34" viewBox="0 0 34 34" fill="none" xmlns="http://www.w3.org/2000/svg">
<path d="M15.932 17.4385L26.3425 27.8384C26.544 28.0111 26.8033 28.1013 27.0685 28.091C27.3337 28.0808 27.5853 27.9708 27.7729 27.7832C27.9606 27.5955 28.0705 27.344 28.0808 27.0788C28.091 26.8136 28.0008 26.5543 27.8282 26.3527L18.2817 16.8062L27.5542 7.53373C27.7505 7.33631 27.8606 7.06925 27.8606 6.79088C27.8606 6.5125 27.7505 6.24544 27.5542 6.04802C27.4563 5.94926 27.3397 5.87087 27.2113 5.81738C27.0829 5.76388 26.9452 5.73634 26.8061 5.73634C26.667 5.73634 26.5293 5.76388 26.4009 5.81738C26.2725 5.87087 26.1559 5.94926 26.058 6.04802L15.932 16.174C15.7647 16.3419 15.6707 16.5692 15.6707 16.8062C15.6707 17.0432 15.7647 17.2706 15.932 17.4385Z" fill="#41B17E"/>
<path d="M5.83748 17.4385L16.248 27.8384C16.4496 28.0111 16.7088 28.1013 16.974 28.091C17.2392 28.0808 17.4908 27.9708 17.6784 27.7832C17.8661 27.5955 17.976 27.344 17.9863 27.0788C17.9965 26.8136 17.9063 26.5543 17.7337 26.3527L8.18722 16.8062L17.4597 7.53373C17.656 7.33631 17.7661 7.06925 17.7661 6.79088C17.7661 6.5125 17.656 6.24544 17.4597 6.04802C17.2623 5.85177 16.9952 5.74161 16.7169 5.74161C16.4385 5.74161 16.1714 5.85177 15.974 6.04802L5.83748 16.174C5.67019 16.3419 5.57625 16.5692 5.57625 16.8062C5.57625 17.0432 5.67019 17.2706 5.83748 17.4385Z" fill="#41B17E"/>
</svg>