<svg width="48" height="48" viewBox="0 0 48 48" fill="none" xmlns="http://www.w3.org/2000/svg">
<path d="M39.4687 20.625C39.4687 20.6156 39.4687 20.6156 39.4687 20.6063C39.4687 20.5875 39.4687 20.5594 39.4687 20.5406C39.4687 20.5313 39.4687 20.5312 39.4687 20.5219C39.4687 20.5031 39.4593 20.475 39.4593 20.4562V20.4469C39.4499 20.4281 39.45 20.4 39.4406 20.3812V20.3719C39.4218 20.325 39.4031 20.2781 39.375 20.2313C39.3562 20.2031 39.3468 20.1844 39.3281 20.1656L39.3187 20.1562C39.2999 20.1375 39.2906 20.1187 39.2718 20.1094L39.2625 20.1C39.2437 20.0812 39.2343 20.0719 39.2156 20.0625C39.2156 20.0625 39.2156 20.0625 39.2062 20.0531L35.325 17.1562V9.60938C35.325 9.225 35.0062 8.90625 34.6218 8.90625H13.4062C13.0218 8.90625 12.7031 9.225 12.7031 9.60938V17.1562L8.82183 20.0531C8.82183 20.0531 8.82183 20.0531 8.81245 20.0625C8.7937 20.0719 8.77495 20.0906 8.76558 20.1094L8.7562 20.1188C8.73745 20.1375 8.72808 20.1469 8.70933 20.1656L8.69995 20.175C8.6812 20.1937 8.66245 20.2219 8.65308 20.2406C8.62495 20.2875 8.6062 20.3344 8.58745 20.3812V20.3906C8.57808 20.4094 8.5687 20.4375 8.5687 20.4562V20.4656C8.55933 20.4844 8.55933 20.5125 8.55933 20.5312C8.55933 20.5406 8.55933 20.5406 8.55933 20.55C8.55933 20.5687 8.55933 20.5969 8.55933 20.6156C8.55933 20.6156 8.55933 20.6156 8.55933 20.625V20.6344V20.6437V38.4094C8.55933 38.7938 8.87808 39.1125 9.26245 39.1125H38.7843C39.1687 39.1125 39.4875 38.7938 39.4875 38.4094V20.625C39.4687 20.625 39.4687 20.625 39.4687 20.625ZM37.5281 20.5687L35.2968 22.0125V18.9L37.5281 20.5687ZM33.8906 10.3031V22.9219L24 29.3156L14.1093 22.9219V10.3031H33.8906ZM12.7031 22.0125L10.4718 20.5687L12.7031 18.9V22.0125ZM9.93745 37.6969V21.9L23.6156 30.7406C23.7281 30.8156 23.8687 30.8531 24 30.8531C24.1312 30.8531 24.2625 30.8156 24.3843 30.7406L38.0625 21.9V37.6875H9.93745V37.6969Z" fill="#41B17E"/>
<path d="M23.5312 26.2773C24.7781 26.2773 25.8187 26.0711 26.8406 25.5367L26.5406 24.7398C25.7812 25.1711 24.7968 25.3867 23.7374 25.3867C20.9906 25.3867 18.9656 23.4742 18.9656 20.3711C18.9656 16.6023 21.5156 14.2023 24.5437 14.2023C27.4218 14.2023 29.0437 16.1336 29.0437 18.8242C29.0437 20.9805 27.9843 22.2461 27.0374 22.2273C26.4281 22.2086 26.2031 21.5617 26.4843 20.1461L27.1124 16.7805C26.6249 16.5555 25.9218 16.3867 25.1249 16.3867C22.5468 16.3867 20.7187 18.4867 20.7187 20.793C20.7187 22.2648 21.6468 23.1367 22.7249 23.1367C23.8406 23.1367 24.6937 22.6023 25.3406 21.5055H25.4156C25.3593 22.6398 26.0437 23.1367 26.7937 23.1367C28.5374 23.1367 30.1031 21.5055 30.1031 18.7117C30.1031 15.6086 27.9281 13.3398 24.6937 13.3398C20.5687 13.3398 17.9156 16.6492 17.9156 20.4742C17.9062 24.0461 20.4843 26.2773 23.5312 26.2773ZM25.4343 19.6023C25.2281 20.7555 24.2437 22.1336 23.1656 22.1336C22.3499 22.1336 21.9374 21.543 21.9374 20.718C21.9374 18.918 23.2593 17.3711 24.8906 17.3711C25.3218 17.3711 25.6312 17.4461 25.8187 17.5023L25.4343 19.6023Z" fill="#41B17E"/>
</svg>
