<svg width="42" height="42" viewBox="0 0 42 42" fill="none" xmlns="http://www.w3.org/2000/svg">
<path fill-rule="evenodd" clip-rule="evenodd" d="M21 41.998C32.598 41.998 42 32.596 42 20.998C42 9.40007 32.598 -0.00195312 21 -0.00195312C9.40202 -0.00195312 0 9.40007 0 20.998C0 32.596 9.40202 41.998 21 41.998ZM21 39.478C31.2062 39.478 39.48 31.2043 39.48 20.998C39.48 10.7918 31.2062 2.51805 21 2.51805C10.7938 2.51805 2.52 10.7918 2.52 20.998C2.52 31.2043 10.7938 39.478 21 39.478ZM22.5242 30.238V20.997H25.2577L25.62 17.8124H22.5242L22.5288 16.2185C22.5288 15.388 22.6134 14.9429 23.8917 14.9429H25.6006V11.758H22.8667C19.5828 11.758 18.427 13.3029 18.427 15.9008V17.8128H16.38V20.9973H18.427V30.238H22.5242Z" fill="#005988"/>
</svg>
