<svg width="21" height="21" viewBox="0 0 21 21" fill="none" xmlns="http://www.w3.org/2000/svg">
<g clip-path="url(#clip0_324_1365)">
<path d="M10.5 14.4375C12.6746 14.4375 14.4375 12.6746 14.4375 10.5C14.4375 8.32538 12.6746 6.5625 10.5 6.5625C8.32538 6.5625 6.5625 8.32538 6.5625 10.5C6.5625 12.6746 8.32538 14.4375 10.5 14.4375Z" stroke="#41B17E" stroke-linecap="round" stroke-linejoin="round"/>
<path d="M15.0691 5.33984C15.2769 5.53125 15.4738 5.72813 15.6597 5.93047L17.8992 6.25039C18.2641 6.88409 18.5453 7.56239 18.7359 8.26836L17.3742 10.0812C17.3742 10.0812 17.3988 10.6391 17.3742 10.918L18.7359 12.7309C18.5462 13.4371 18.2649 14.1155 17.8992 14.7488L15.6597 15.0687C15.6597 15.0687 15.2742 15.4707 15.0691 15.6594L14.7492 17.8988C14.1155 18.2637 13.4372 18.545 12.7312 18.7355L10.9183 17.3738C10.64 17.3984 10.36 17.3984 10.0816 17.3738L8.26873 18.7355C7.56245 18.5458 6.88404 18.2646 6.25076 17.8988L5.93084 15.6594C5.72849 15.468 5.53162 15.2711 5.34021 15.0687L3.10076 14.7488C2.73587 14.1151 2.45462 13.4368 2.26404 12.7309L3.62576 10.918C3.62576 10.918 3.60115 10.3602 3.62576 10.0812L2.26404 8.26836C2.45374 7.56209 2.73503 6.88367 3.10076 6.25039L5.34021 5.93047C5.53162 5.72813 5.72849 5.53125 5.93084 5.33984L6.25076 3.10039C6.88445 2.7355 7.56276 2.45425 8.26873 2.26367L10.0816 3.62539C10.36 3.60078 10.64 3.60078 10.9183 3.62539L12.7312 2.26367C13.4375 2.45337 14.1159 2.73466 14.7492 3.10039L15.0691 5.33984Z" stroke="#41B17E" stroke-linecap="round" stroke-linejoin="round"/>
</g>
<defs>
<clipPath id="clip0_324_1365">
<rect width="21" height="21" fill="white"/>
</clipPath>
</defs>
</svg>