<svg width="42" height="42" viewBox="0 0 42 42" fill="none" xmlns="http://www.w3.org/2000/svg">
<path fill-rule="evenodd" clip-rule="evenodd" d="M21 -0.00195312C9.40202 -0.00195312 0 9.40007 0 20.998C0 32.596 9.40202 41.998 21 41.998C32.598 41.998 42 32.596 42 20.998C42 9.40007 32.598 -0.00195312 21 -0.00195312ZM21 2.51805C10.7938 2.51805 2.52 10.7918 2.52 20.998C2.52 31.2043 10.7938 39.478 21 39.478C31.2062 39.478 39.48 31.2043 39.48 20.998C39.48 10.7918 31.2062 2.51805 21 2.51805ZM30.1991 28.9862C30.2149 28.9004 30.2265 28.8132 30.24 28.7271V13.2689C30.2271 13.1843 30.216 13.0993 30.2002 13.0149C30.0384 12.149 29.3553 11.4771 28.5165 11.3571C28.4817 11.3524 28.4476 11.3444 28.4133 11.338H13.5867C13.4972 11.3549 13.4072 11.3676 13.3191 11.3885C12.5004 11.5835 11.8946 12.2729 11.7779 13.1401C11.7732 13.1763 11.7661 13.2121 11.76 13.2483V28.7487C11.7769 28.8469 11.7903 28.9459 11.8115 29.0435C11.9925 29.8804 12.6758 30.5292 13.4888 30.6385C13.5281 30.6434 13.5677 30.6514 13.607 30.658H28.393C28.4891 30.6409 28.5854 30.6269 28.6804 30.6054C29.435 30.4379 30.0516 29.7798 30.1991 28.9862ZM13.7595 27.8011C13.7595 28.2124 14.1001 28.5661 14.4935 28.5661C18.8302 28.5663 23.1666 28.5663 27.5033 28.5661C27.9004 28.5661 28.2392 28.213 28.2392 27.7987C28.2395 24.9429 28.2392 22.0873 28.2392 19.2318V19.1725H26.4751C26.7242 20.0047 26.8007 20.8513 26.7031 21.7141C26.6049 22.5772 26.3389 23.3805 25.9057 24.1222C25.4722 24.8648 24.9102 25.4799 24.222 25.9696C22.4384 27.2395 20.0901 27.3512 18.1975 26.2407C17.2408 25.6799 16.4896 24.8979 15.9658 23.8903C15.1845 22.3866 15.0597 20.8085 15.5181 19.1711C14.9328 19.1717 14.35 19.1717 13.7592 19.1717V19.2238C13.7592 22.0829 13.759 24.942 13.7595 27.8011ZM20.9141 24.9109C23.0065 24.9578 24.6988 23.21 24.7429 21.0844C24.788 18.8923 23.0967 17.0816 21.0001 17.083C18.9505 17.0816 17.2843 18.8057 17.2555 20.9387C17.226 23.1292 18.9033 24.8656 20.9141 24.9109ZM28.2389 15.5226C28.2392 14.9127 28.2392 14.3025 28.2389 13.6926C28.2389 13.2552 27.9078 12.907 27.4899 12.9068C26.9081 12.9065 26.3263 12.9062 25.7442 12.9068C25.3273 12.9073 24.9951 13.2563 24.9949 13.6937C24.9946 14.2984 24.993 14.903 24.997 15.508C24.9975 15.5982 25.0139 15.6919 25.0413 15.7775C25.1458 16.0994 25.4278 16.2969 25.7732 16.2985C26.054 16.2991 26.3347 16.2982 26.6157 16.2982C26.9197 16.2947 27.2247 16.3007 27.5289 16.293C27.9202 16.2828 28.2389 15.9322 28.2389 15.5226Z" fill="#005988"/>
</svg>
