<svg width="42" height="42" viewBox="0 0 42 42" fill="none" xmlns="http://www.w3.org/2000/svg">
<path fill-rule="evenodd" clip-rule="evenodd" d="M21 41.998C32.598 41.998 42 32.596 42 20.998C42 9.40007 32.598 -0.00195312 21 -0.00195312C9.40202 -0.00195312 0 9.40007 0 20.998C0 32.596 9.40202 41.998 21 41.998ZM21 39.478C31.2062 39.478 39.48 31.2043 39.48 20.998C39.48 10.7918 31.2062 2.51805 21 2.51805C10.7938 2.51805 2.52 10.7918 2.52 20.998C2.52 31.2043 10.7938 39.478 21 39.478ZM11.76 16.8972V29.1109H15.7165V16.8972H11.76ZM13.9983 10.918C12.6449 10.918 11.76 11.8302 11.76 13.0277C11.76 14.2005 12.6187 15.1388 13.947 15.1388H13.9723C15.3518 15.1388 16.211 14.2005 16.211 13.0277C16.1853 11.8302 15.3518 10.918 13.9983 10.918ZM25.6846 16.8972C23.584 16.8972 22.6435 18.0827 22.1184 18.9143V17.1843H18.1614C18.2136 18.3304 18.1614 29.398 18.1614 29.398H22.1184V22.5769C22.1184 22.2119 22.1441 21.8477 22.2487 21.5864C22.5346 20.8571 23.1857 20.1021 24.2787 20.1021C25.711 20.1021 26.2835 21.2221 26.2835 22.8634V29.3977H30.2398L30.24 22.3948C30.24 18.6432 28.2882 16.8972 25.6846 16.8972Z" fill="#005988"/>
</svg>
