<svg width="24" height="24" viewBox="0 0 24 24" fill="none" xmlns="http://www.w3.org/2000/svg">
<path d="M12.05 24.0001C5.44998 24.0001 0.0999756 18.6501 0.0999756 12.0501C0.0999756 5.45009 5.44998 0.100098 12.05 0.100098C18.65 0.100098 24 5.45009 24 12.0501C24 18.6501 18.65 24.0001 12.05 24.0001ZM12.05 1.40009C6.19998 1.40009 1.39998 6.20009 1.39998 12.0501C1.39998 17.9001 6.19998 22.7001 12.05 22.7001C17.9 22.7001 22.7 17.9001 22.7 12.0501C22.7 6.15009 17.9 1.40009 12.05 1.40009Z" fill="#005988"/>
<path d="M8.34999 8.25C8.54999 7.7 8.79999 7.24999 9.14999 6.89999C9.49999 6.54999 9.94999 6.25 10.45 6.05C10.95 5.85 11.55 5.75 12.2 5.75C12.7 5.75 13.2 5.85 13.65 6C14.1 6.15 14.5 6.39999 14.85 6.64999C15.2 6.89999 15.45 7.3 15.65 7.7C15.85 8.1 15.95 8.6 15.95 9.15C15.95 9.85 15.8 10.4 15.5 10.9C15.2 11.4 14.8 11.85 14.35 12.3C13.95 12.7 13.65 13 13.45 13.2C13.2 13.4 13.05 13.65 12.95 13.85C12.85 14.05 12.75 14.3 12.75 14.6C12.7 14.9 12.7 15.1 12.7 15.65H11.55C11.55 15.1 11.55 14.85 11.65 14.5C11.7 14.1 11.85 13.8 12 13.45C12.15 13.15 12.4 12.85 12.65 12.55C12.95 12.25 13.25 11.95 13.65 11.6C14 11.3 14.3 10.95 14.5 10.55C14.75 10.15 14.85 9.7 14.85 9.25C14.85 8.9 14.8 8.55 14.65 8.25C14.5 7.95 14.3 7.7 14.1 7.45C13.9 7.2 13.6 7.05 13.25 6.95C12.95 6.85 12.6 6.75 12.25 6.75C11.75 6.75 11.3 6.85 10.95 7C10.55 7.15 10.25 7.4 9.99999 7.7C9.74999 8 9.54999 8.35 9.44999 8.75C9.34999 9.15 9.24999 9.5 9.29999 9.95H8.14999C8.09999 9.25 8.14999 8.8 8.34999 8.25ZM11.35 17H12.75V18.4H11.35V17Z" fill="#005988"/>
</svg>
