<svg width="48" height="48" viewBox="0 0 48 48" fill="none" xmlns="http://www.w3.org/2000/svg"><path d="M4.49998 44.2492C4.38073 44.2495 4.26312 44.2214 4.15692 44.1672C4.05071 44.1129 3.95897 44.0341 3.88931 43.9373C3.81965 43.8405 3.77407 43.7285 3.75636 43.6106C3.73865 43.4927 3.74932 43.3722 3.78748 43.2592L6.74998 34.5442C4.41928 30.6669 3.44877 26.1228 3.99217 21.6316C4.53557 17.1404 6.56181 12.9588 9.74998 9.74923C13.5351 5.98087 18.6588 3.86523 24 3.86523C29.3411 3.86523 34.4648 5.98087 38.25 9.74923C41.5866 13.1339 43.6233 17.5864 44.002 22.3241C44.3807 27.0618 43.0771 31.7813 40.3204 35.653C37.5638 39.5247 33.5305 42.3006 28.9297 43.4929C24.3289 44.6851 19.455 44.2173 15.165 42.1717L4.64998 44.2492H4.49998ZM15.2625 40.6117C15.3799 40.6124 15.4955 40.6407 15.6 40.6942C19.568 42.6734 24.1101 43.1786 28.416 42.1197C32.7219 41.0607 36.5116 38.5065 39.109 34.9126C41.7064 31.3188 42.9426 26.9191 42.5971 22.4983C42.2515 18.0776 40.3467 13.9234 37.2225 10.7767C35.4862 9.04009 33.4248 7.6625 31.1561 6.72262C28.8874 5.78274 26.4557 5.29898 24 5.29898C21.5443 5.29898 19.1126 5.78274 16.8439 6.72262C14.5751 7.6625 12.5138 9.04009 10.7775 10.7767C7.79027 13.7952 5.9124 17.7358 5.4494 21.9572C4.98641 26.1786 5.96554 30.4325 8.22749 34.0267C8.28752 34.1217 8.32543 34.229 8.33841 34.3407C8.35139 34.4523 8.33911 34.5655 8.30248 34.6717L5.63248 42.5392L15.1275 40.6492L15.2625 40.6117Z" fill="white"/><path d="M29.3775 34.5005C29.1477 34.513 28.9173 34.513 28.6875 34.5005C24.705 34.0655 19.6875 30.128 18.27 28.7405C16.8825 27.353 12.9375 22.3055 12.51 18.323C12.165 15.143 14.2875 12.983 15.2175 12.1955C15.6334 11.8383 16.1699 11.6532 16.7175 11.678L18.7425 11.7455C18.8906 11.751 19.0337 11.8002 19.1539 11.887C19.274 11.9737 19.3657 12.0941 19.4175 12.233C19.8675 13.4255 21.3225 17.393 21.3225 18.4205C21.3225 19.3205 20.5275 20.018 19.8225 20.633C19.6725 20.7605 19.47 20.9405 19.35 21.068C20.108 22.4533 21.016 23.7511 22.0575 24.938C23.2446 25.9794 24.5423 26.8873 25.9275 27.6455C26.055 27.518 26.235 27.3155 26.3625 27.173C26.9775 26.468 27.675 25.673 28.6125 25.673C29.64 25.673 33.6075 27.128 34.8 27.578C34.9389 27.6298 35.0593 27.7215 35.146 27.8416C35.2328 27.9618 35.282 28.1049 35.2875 28.253L35.355 30.278C35.3704 30.8242 35.1864 31.3574 34.8375 31.778C34.1748 32.5955 33.3445 33.2616 32.4027 33.7312C31.4608 34.2008 30.4293 34.4631 29.3775 34.5005ZM19.335 27.6605C20.5725 28.898 25.335 32.6105 28.8525 32.993C31.32 33.2555 33.045 31.553 33.675 30.8105C33.7875 30.6706 33.846 30.4949 33.84 30.3155L33.7875 28.8155C32.1016 28.1394 30.3665 27.5928 28.5975 27.1805C28.3575 27.1805 27.765 27.878 27.51 28.1705C27 28.7555 26.595 29.213 26.01 29.213C25.0575 29.213 21.735 26.753 20.9925 26.0105C20.25 25.268 17.8125 21.923 17.8125 21.0005C17.8125 20.438 18.27 20.033 18.855 19.5005C19.14 19.2455 19.8225 18.6605 19.845 18.413C19.4326 16.644 18.886 14.909 18.21 13.223L16.71 13.1705C16.5306 13.1645 16.3549 13.223 16.215 13.3355C15.465 13.9655 13.7625 15.6905 14.0325 18.1505C14.415 21.6905 18.1275 26.4005 19.365 27.668L19.335 27.6605Z" fill="white"/></svg>