<svg width="42" height="42" viewBox="0 0 42 42" fill="none" xmlns="http://www.w3.org/2000/svg">
<path fill-rule="evenodd" clip-rule="evenodd" d="M42 20.998C42 9.40007 32.598 -0.00195312 21 -0.00195312C9.40202 -0.00195312 0 9.40007 0 20.998C0 32.596 9.40202 41.998 21 41.998C32.598 41.998 42 32.596 42 20.998ZM39.48 20.998C39.48 10.7918 31.2062 2.51805 21 2.51805C10.7938 2.51805 2.52 10.7918 2.52 20.998C2.52 31.2043 10.7938 39.478 21 39.478C31.2062 39.478 39.48 31.2043 39.48 20.998ZM30.8854 25.841C30.6347 26.9307 29.7433 27.7342 28.6708 27.854C26.1303 28.1379 23.559 28.1393 20.9987 28.1379C18.4387 28.1393 15.8671 28.1379 13.3268 27.854C12.2541 27.7342 11.3632 26.9307 11.1127 25.841C10.756 24.2891 10.756 22.5958 10.756 20.9983C10.756 19.4006 10.7602 17.7069 11.1167 16.155C11.3675 15.0654 12.2583 14.2617 13.3308 14.1421C15.8714 13.8582 18.4427 13.8568 21.0029 13.8582C23.563 13.8568 26.1345 13.8582 28.6748 14.1421C29.7476 14.2617 30.6389 15.0654 30.8894 16.155C31.2461 17.7069 31.244 19.4006 31.244 20.9983C31.244 22.5958 31.2419 24.2891 30.8854 25.841ZM19.156 17.218L24.826 20.4916L19.156 23.7652V17.218Z" fill="#005988"/>
</svg>
