<svg width="240" height="247" viewBox="0 0 240 247" fill="none" xmlns="http://www.w3.org/2000/svg">
<path d="M100.008 234.198C98.2923 234.198 96.8523 233.628 95.6883 232.488C94.5243 231.336 93.9423 229.716 93.9423 227.628C93.9423 225.576 94.5183 223.944 95.6703 222.732C96.8343 221.52 98.3463 220.914 100.206 220.914C101.298 220.914 102.282 221.154 103.158 221.634C104.034 222.114 104.718 222.792 105.21 223.668L103.644 224.694C102.84 223.398 101.706 222.75 100.242 222.75C98.9703 222.75 97.9563 223.17 97.2003 224.01C96.4443 224.838 96.0663 226.02 96.0663 227.556C96.0663 229.092 96.4563 230.268 97.2363 231.084C98.0163 231.9 98.9823 232.308 100.134 232.308C101.646 232.308 102.966 231.666 104.094 230.382L105.408 231.678C104.736 232.446 103.932 233.058 102.996 233.514C102.06 233.97 101.064 234.198 100.008 234.198ZM110.847 234.234C109.503 234.234 108.429 233.802 107.625 232.938C106.821 232.074 106.425 230.928 106.437 229.5C106.449 228.06 106.851 226.914 107.643 226.062C108.447 225.198 109.515 224.766 110.847 224.766C112.203 224.766 113.277 225.198 114.069 226.062C114.873 226.914 115.275 228.06 115.275 229.5C115.275 230.928 114.873 232.074 114.069 232.938C113.277 233.802 112.203 234.234 110.847 234.234ZM108.381 229.5C108.381 231.552 109.203 232.578 110.847 232.578C112.491 232.578 113.313 231.552 113.313 229.5C113.313 227.448 112.491 226.422 110.847 226.422C110.043 226.422 109.431 226.686 109.011 227.214C108.591 227.73 108.381 228.492 108.381 229.5ZM117.189 234V221.148H119.151V234H117.189ZM125.544 232.56C126.528 232.56 127.452 232.212 128.316 231.516L129.216 232.83C128.148 233.742 126.888 234.198 125.436 234.198C124.14 234.198 123.084 233.79 122.268 232.974C121.464 232.146 121.062 231.03 121.062 229.626C121.062 228.258 121.47 227.106 122.286 226.17C123.114 225.234 124.254 224.766 125.706 224.766C126.702 224.766 127.56 225.042 128.28 225.594C129 226.134 129.36 226.896 129.36 227.88C129.36 228.6 129.138 229.182 128.694 229.626C128.25 230.07 127.602 230.292 126.75 230.292H122.952C123.192 231.804 124.056 232.56 125.544 232.56ZM125.652 226.278C124.932 226.278 124.32 226.512 123.816 226.98C123.324 227.448 123.024 228.09 122.916 228.906H126.39C126.75 228.906 127.032 228.81 127.236 228.618C127.44 228.426 127.542 228.15 127.542 227.79C127.542 227.37 127.368 227.016 127.02 226.728C126.684 226.428 126.228 226.278 125.652 226.278ZM136.617 231.894L137.301 233.352C136.521 233.916 135.645 234.198 134.673 234.198C133.725 234.198 133.005 233.916 132.513 233.352C132.021 232.776 131.775 231.99 131.775 230.994V226.44H130.317V225H131.775V222.21H133.719V225H136.779V226.44H133.719V230.94C133.719 231.456 133.851 231.834 134.115 232.074C134.391 232.302 134.709 232.416 135.069 232.416C135.585 232.416 136.101 232.242 136.617 231.894ZM141.88 224.766C143.08 224.766 144.028 225.09 144.724 225.738C145.42 226.386 145.768 227.31 145.768 228.51V234H143.986V232.632C143.302 233.688 142.282 234.216 140.926 234.216C140.002 234.216 139.252 233.964 138.676 233.46C138.112 232.944 137.83 232.272 137.83 231.444C137.83 230.412 138.238 229.662 139.054 229.194C139.87 228.726 140.926 228.492 142.222 228.492C142.738 228.492 143.308 228.534 143.932 228.618V228.42C143.932 227.76 143.746 227.262 143.374 226.926C143.002 226.578 142.474 226.404 141.79 226.404C140.818 226.404 139.894 226.758 139.018 227.466L138.082 226.206C139.078 225.246 140.344 224.766 141.88 224.766ZM141.34 232.722C142.132 232.722 142.75 232.458 143.194 231.93C143.638 231.39 143.884 230.694 143.932 229.842C143.308 229.782 142.792 229.752 142.384 229.752C140.656 229.752 139.792 230.286 139.792 231.354C139.792 231.762 139.93 232.092 140.206 232.344C140.494 232.596 140.872 232.722 141.34 232.722Z" fill="#005988"/>
<mask id="mask0_325_3383" style="mask-type:luminance" maskUnits="userSpaceOnUse" x="0" y="140" width="240" height="57">
<path d="M240 140.902H0V196.902H240V140.902Z" fill="white"/>
</mask>
<g mask="url(#mask0_325_3383)">
<mask id="mask1_325_3383" style="mask-type:luminance" maskUnits="userSpaceOnUse" x="0" y="140" width="240" height="57">
<path d="M221.618 196.902H0.118896L18.4409 168.906L0.118896 140.902H221.618L239.911 168.906L221.618 196.902Z" fill="white"/>
</mask>
<g mask="url(#mask1_325_3383)">
<path d="M240.297 140.686H0V197.127H240.297V140.686Z" fill="#005988"/>
</g>
</g>
<mask id="mask2_325_3383" style="mask-type:luminance" maskUnits="userSpaceOnUse" x="112" y="161" width="16" height="16">
<path d="M127.177 161.816H112V176.958H127.177V161.816Z" fill="white"/>
</mask>
<g mask="url(#mask2_325_3383)">
<mask id="mask3_325_3383" style="mask-type:luminance" maskUnits="userSpaceOnUse" x="112" y="161" width="16" height="16">
<path d="M121.002 176.811C125.081 176.023 127.75 172.07 126.965 167.981C126.179 163.891 122.236 161.214 118.158 162.002C114.079 162.789 111.41 166.743 112.195 170.832C112.981 174.922 116.924 177.598 121.002 176.811Z" fill="white"/>
</mask>
<g mask="url(#mask3_325_3383)">
<path d="M128.919 103.58H110.243V178.424H128.919V103.58Z" fill="white"/>
</g>
</g>
<mask id="mask4_325_3383" style="mask-type:luminance" maskUnits="userSpaceOnUse" x="111" y="103" width="18" height="76">
<path d="M128.949 103.578H111V178.422H128.949V103.578Z" fill="white"/>
</mask>
<g mask="url(#mask4_325_3383)">
<mask id="mask5_325_3383" style="mask-type:luminance" maskUnits="userSpaceOnUse" x="111" y="103" width="18" height="76">
<path d="M113.863 169.401C113.863 166.03 116.619 163.265 119.982 163.265C123.345 163.265 126.101 166.03 126.101 169.401C126.101 172.773 123.345 175.537 119.982 175.537C116.619 175.582 113.863 172.818 113.863 169.401ZM128.896 169.401C128.896 164.951 125.624 161.253 121.376 160.554V103.586H118.573V160.6C114.325 161.253 111.053 165.004 111.053 169.447C111.053 174.413 115.067 178.392 119.974 178.392C124.882 178.392 128.896 174.367 128.896 169.401Z" fill="white"/>
</mask>
<g mask="url(#mask5_325_3383)">
<path d="M129.313 103.578H110.636V178.422H129.313V103.578Z" fill="#005988"/>
</g>
</g>
<mask id="mask6_325_3383" style="mask-type:luminance" maskUnits="userSpaceOnUse" x="68" y="0" width="104" height="104">
<path d="M171.378 0H68V103.655H171.378V0Z" fill="white"/>
</mask>
<g mask="url(#mask6_325_3383)">
<path d="M171.294 51.7893C171.294 52.6398 171.271 53.4827 171.233 54.3332C171.196 55.1761 171.127 56.0266 171.044 56.8695C170.961 57.7125 170.855 58.5554 170.734 59.3907C170.612 60.226 170.468 61.0613 170.302 61.8966C170.135 62.7243 169.953 63.5521 169.749 64.3798C169.545 65.1999 169.317 66.02 169.075 66.8326C168.833 67.6451 168.568 68.4501 168.28 69.2474C167.992 70.0447 167.689 70.8345 167.371 71.6166C167.045 72.3988 166.704 73.1734 166.341 73.9403C165.977 74.7073 165.599 75.4667 165.205 76.2109C164.804 76.9551 164.387 77.6993 163.955 78.4207C163.524 79.1497 163.069 79.8635 162.6 80.5697C162.13 81.2759 161.645 81.967 161.138 82.6504C160.638 83.3338 160.116 84.0021 159.578 84.6552C159.04 85.3082 158.487 85.9537 157.919 86.5764C157.351 87.1991 156.768 87.8218 156.17 88.4141C155.572 89.014 154.958 89.5987 154.337 90.1682C153.716 90.7378 153.072 91.2921 152.421 91.8313C151.77 92.3704 151.103 92.8868 150.422 93.3956C149.74 93.8968 149.051 94.3904 148.346 94.8612C147.642 95.332 146.93 95.7876 146.203 96.2205C145.476 96.6533 144.741 97.071 143.999 97.4734C143.257 97.8759 142.5 98.2556 141.735 98.6125C140.97 98.977 140.197 99.3187 139.417 99.6453C138.637 99.9718 137.85 100.276 137.054 100.557C136.259 100.845 135.456 101.111 134.646 101.354C133.836 101.597 133.025 101.825 132.2 102.03C131.382 102.235 130.556 102.425 129.723 102.584C128.898 102.751 128.065 102.895 127.224 103.017C126.391 103.138 125.55 103.245 124.71 103.328C123.869 103.412 123.028 103.473 122.18 103.518C121.34 103.556 120.491 103.579 119.643 103.579C118.795 103.579 117.954 103.556 117.106 103.518C116.265 103.48 115.417 103.412 114.576 103.328C113.736 103.245 112.895 103.138 112.062 103.017C111.229 102.895 110.396 102.751 109.563 102.584C108.737 102.417 107.912 102.235 107.086 102.03C106.268 101.825 105.45 101.597 104.64 101.354C103.83 101.111 103.027 100.845 102.232 100.557C101.437 100.268 100.649 99.9642 99.8688 99.6453C99.0888 99.3187 98.3163 98.977 97.5513 98.6125C96.7864 98.248 96.0291 97.8683 95.2869 97.4734C94.5447 97.071 93.8025 96.6533 93.083 96.2205C92.356 95.7876 91.6441 95.332 90.9397 94.8612C90.2354 94.3904 89.5462 93.9044 88.8646 93.3956C88.183 92.8944 87.5165 92.3704 86.8652 91.8313C86.2139 91.2921 85.5702 90.7378 84.9491 90.1682C84.3205 89.5987 83.7071 89.014 83.1164 88.4141C82.5181 87.8142 81.9349 87.1991 81.3669 86.5764C80.7989 85.9461 80.246 85.3082 79.7083 84.6552C79.1706 84.0021 78.6556 83.3338 78.1482 82.6504C77.6408 81.967 77.1561 81.2759 76.6865 80.5697C76.2169 79.8635 75.7625 79.1497 75.3309 78.4207C74.8992 77.6917 74.4826 76.9551 74.0812 76.2109C73.6798 75.4667 73.3012 74.7073 72.9452 73.9403C72.5817 73.1734 72.2409 72.3988 71.9152 71.6166C71.5896 70.8345 71.2866 70.0447 71.0064 69.2474C70.7186 68.4501 70.4536 67.6451 70.2112 66.8326C69.9689 66.02 69.7417 65.2075 69.5372 64.3798C69.3327 63.5597 69.1433 62.7319 68.9843 61.8966C68.8177 61.0689 68.6738 60.2336 68.5526 59.3907C68.4314 58.5554 68.3254 57.7125 68.2421 56.8695C68.1588 56.0266 68.0982 55.1837 68.0528 54.3332C68.0149 53.4903 67.9922 52.6398 67.9922 51.7893C67.9922 50.9388 68.0149 50.0959 68.0528 49.2454C68.0906 48.3949 68.1588 47.552 68.2421 46.7091C68.3254 45.8662 68.4314 45.0233 68.5526 44.1879C68.6738 43.3526 68.8177 42.5173 68.9843 41.682C69.1509 40.8543 69.3327 40.0266 69.5372 39.1988C69.7417 38.3787 69.9689 37.5586 70.2112 36.746C70.4536 35.9335 70.7186 35.1286 71.0064 34.3312C71.2942 33.5339 71.5971 32.7441 71.9152 31.962C72.2409 31.1798 72.5817 30.4052 72.9452 29.6383C73.3087 28.8713 73.6874 28.1119 74.0812 27.3677C74.4826 26.6235 74.8992 25.8794 75.3309 25.1579C75.7625 24.4289 76.2169 23.7151 76.6865 23.0089C77.1561 22.3027 77.6408 21.6117 78.1482 20.9282C78.6556 20.2448 79.1706 19.5765 79.7083 18.9235C80.246 18.2704 80.7989 17.6249 81.3669 17.0022C81.9349 16.372 82.5181 15.7569 83.1164 15.1645C83.7147 14.5646 84.3281 13.9799 84.9491 13.4104C85.5777 12.8409 86.2139 12.2865 86.8652 11.7473C87.5165 11.2082 88.183 10.6918 88.8646 10.183C89.5462 9.68184 90.2354 9.18825 90.9397 8.71743C91.6441 8.24662 92.356 7.79099 93.083 7.35815C93.8101 6.9253 94.5447 6.50764 95.2869 6.10517C96.0291 5.7027 96.7864 5.32302 97.5513 4.95852C98.3163 4.59401 99.0888 4.25229 99.8688 3.92576C100.649 3.59923 101.437 3.29548 102.232 3.01451C103.027 2.73354 103.83 2.46016 104.64 2.21716C105.45 1.97416 106.261 1.74635 107.086 1.54132C107.904 1.33629 108.73 1.14644 109.563 0.986972C110.388 0.819909 111.221 0.675627 112.062 0.554127C112.895 0.432626 113.736 0.326313 114.576 0.242782C115.417 0.15925 116.258 0.0985003 117.106 0.0529377C117.947 0.0149688 118.795 -0.0078125 119.643 -0.0078125C120.491 -0.0078125 121.332 0.0149688 122.18 0.0529377C123.021 0.0909065 123.869 0.15925 124.71 0.242782C125.55 0.326313 126.391 0.432626 127.224 0.554127C128.057 0.675627 128.89 0.819909 129.723 0.986972C130.549 1.15403 131.374 1.33629 132.2 1.54132C133.018 1.74635 133.836 1.97416 134.646 2.21716C135.456 2.46016 136.259 2.72595 137.054 3.01451C137.85 3.30307 138.637 3.60682 139.417 3.92576C140.197 4.2447 140.97 4.59401 141.735 4.95852C142.5 5.32302 143.257 5.7027 143.999 6.10517C144.741 6.50764 145.484 6.9253 146.203 7.35815C146.93 7.79099 147.642 8.24662 148.346 8.71743C149.051 9.18825 149.74 9.67425 150.422 10.183C151.103 10.6842 151.77 11.2082 152.421 11.7473C153.072 12.2865 153.716 12.8409 154.337 13.4104C154.958 13.9799 155.579 14.5646 156.17 15.1645C156.768 15.7645 157.351 16.3795 157.919 17.0022C158.487 17.6249 159.04 18.2704 159.578 18.9235C160.116 19.5765 160.631 20.2448 161.138 20.9282C161.638 21.6117 162.13 22.3027 162.6 23.0089C163.069 23.7151 163.524 24.4289 163.955 25.1579C164.387 25.887 164.804 26.6235 165.205 27.3677C165.606 28.1119 165.985 28.8713 166.341 29.6383C166.704 30.4052 167.045 31.1798 167.371 31.962C167.697 32.7441 168 33.5339 168.28 34.3312C168.568 35.1286 168.833 35.9335 169.075 36.746C169.317 37.5586 169.545 38.3711 169.749 39.1988C169.953 40.019 170.143 40.8467 170.302 41.682C170.468 42.5097 170.612 43.345 170.734 44.1879C170.855 45.0233 170.961 45.8662 171.044 46.7091C171.127 47.552 171.188 48.3949 171.233 49.2454C171.271 50.0883 171.294 50.9388 171.294 51.7893Z" fill="#005988"/>
</g>
<path d="M122.017 36.768C122.763 36.768 123.318 36.9387 123.681 37.28C124.043 37.6213 124.225 38.0267 124.225 38.496V60H119.681V42.656L115.649 45.536L113.184 42.464L119.649 37.632C120.459 37.056 121.249 36.768 122.017 36.768Z" fill="white"/>
</svg>
