<svg width="240" height="247" viewBox="0 0 240 247" fill="none" xmlns="http://www.w3.org/2000/svg">
<path d="M109.169 234L106.163 228.942H104.615V234H102.581V222.03C102.581 221.778 102.665 221.568 102.833 221.4C103.001 221.232 103.211 221.148 103.463 221.148H107.171C108.515 221.148 109.547 221.508 110.267 222.228C110.999 222.948 111.365 223.896 111.365 225.072C111.365 226.056 111.107 226.866 110.591 227.502C110.075 228.138 109.331 228.564 108.359 228.78L111.653 234H109.169ZM104.615 222.93V227.214H106.775C107.591 227.214 108.209 227.028 108.629 226.656C109.049 226.284 109.259 225.744 109.259 225.036C109.259 224.388 109.049 223.878 108.629 223.506C108.209 223.122 107.615 222.93 106.847 222.93H104.615ZM117.079 234.234C115.735 234.234 114.661 233.802 113.857 232.938C113.053 232.074 112.657 230.928 112.669 229.5C112.681 228.06 113.083 226.914 113.875 226.062C114.679 225.198 115.747 224.766 117.079 224.766C118.435 224.766 119.509 225.198 120.301 226.062C121.105 226.914 121.507 228.06 121.507 229.5C121.507 230.928 121.105 232.074 120.301 232.938C119.509 233.802 118.435 234.234 117.079 234.234ZM114.613 229.5C114.613 231.552 115.435 232.578 117.079 232.578C118.723 232.578 119.545 231.552 119.545 229.5C119.545 227.448 118.723 226.422 117.079 226.422C116.275 226.422 115.663 226.686 115.243 227.214C114.823 227.73 114.613 228.492 114.613 229.5ZM128.698 231.894L129.382 233.352C128.602 233.916 127.726 234.198 126.754 234.198C125.806 234.198 125.086 233.916 124.594 233.352C124.102 232.776 123.856 231.99 123.856 230.994V226.44H122.398V225H123.856V222.21H125.8V225H128.86V226.44H125.8V230.94C125.8 231.456 125.932 231.834 126.196 232.074C126.472 232.302 126.79 232.416 127.15 232.416C127.666 232.416 128.182 232.242 128.698 231.894ZM133.961 224.766C135.161 224.766 136.109 225.09 136.805 225.738C137.501 226.386 137.849 227.31 137.849 228.51V234H136.067V232.632C135.383 233.688 134.363 234.216 133.007 234.216C132.083 234.216 131.333 233.964 130.757 233.46C130.193 232.944 129.911 232.272 129.911 231.444C129.911 230.412 130.319 229.662 131.135 229.194C131.951 228.726 133.007 228.492 134.303 228.492C134.819 228.492 135.389 228.534 136.013 228.618V228.42C136.013 227.76 135.827 227.262 135.455 226.926C135.083 226.578 134.555 226.404 133.871 226.404C132.899 226.404 131.975 226.758 131.099 227.466L130.163 226.206C131.159 225.246 132.425 224.766 133.961 224.766ZM133.421 232.722C134.213 232.722 134.831 232.458 135.275 231.93C135.719 231.39 135.965 230.694 136.013 229.842C135.389 229.782 134.873 229.752 134.465 229.752C132.737 229.752 131.873 230.286 131.873 231.354C131.873 231.762 132.011 232.092 132.287 232.344C132.575 232.596 132.953 232.722 133.421 232.722Z" fill="#0083CA"/>
<mask id="mask0_325_3418" style="mask-type:luminance" maskUnits="userSpaceOnUse" x="0" y="140" width="240" height="57">
<path d="M240 140.902H0V196.902H240V140.902Z" fill="white"/>
</mask>
<g mask="url(#mask0_325_3418)">
<mask id="mask1_325_3418" style="mask-type:luminance" maskUnits="userSpaceOnUse" x="0" y="140" width="240" height="57">
<path d="M221.619 196.902H0.119019L18.4509 168.906L0.119019 140.902H221.619L239.921 168.906L221.619 196.902Z" fill="white"/>
</mask>
<g mask="url(#mask1_325_3418)">
<path d="M240.297 140.686H0V197.127H240.297V140.686Z" fill="#0083CA"/>
</g>
</g>
<mask id="mask2_325_3418" style="mask-type:luminance" maskUnits="userSpaceOnUse" x="113" y="161" width="16" height="16">
<path d="M128.177 161.816H113V176.958H128.177V161.816Z" fill="white"/>
</mask>
<g mask="url(#mask2_325_3418)">
<mask id="mask3_325_3418" style="mask-type:luminance" maskUnits="userSpaceOnUse" x="113" y="161" width="16" height="16">
<path d="M127.537 172.291C129.127 168.443 127.305 164.032 123.467 162.439C119.63 160.845 115.231 162.672 113.642 166.52C112.052 170.367 113.874 174.778 117.712 176.372C121.549 177.966 125.948 176.139 127.537 172.291Z" fill="white"/>
</mask>
<g mask="url(#mask3_325_3418)">
<path d="M129.927 103.58H111.251V178.424H129.927V103.58Z" fill="white"/>
</g>
</g>
<mask id="mask4_325_3418" style="mask-type:luminance" maskUnits="userSpaceOnUse" x="111" y="103" width="18" height="76">
<path d="M128.949 103.578H111V178.422H128.949V103.578Z" fill="white"/>
</mask>
<g mask="url(#mask4_325_3418)">
<mask id="mask5_325_3418" style="mask-type:luminance" maskUnits="userSpaceOnUse" x="111" y="103" width="18" height="76">
<path d="M113.855 169.401C113.855 166.03 116.612 163.265 119.974 163.265C123.337 163.265 126.094 166.03 126.094 169.401C126.094 172.773 123.337 175.537 119.974 175.537C116.612 175.582 113.855 172.818 113.855 169.401ZM128.896 169.401C128.896 164.951 125.624 161.253 121.376 160.554V103.586H118.573V160.6C114.325 161.253 111.053 165.004 111.053 169.447C111.053 174.413 115.067 178.392 119.974 178.392C124.882 178.392 128.896 174.367 128.896 169.401Z" fill="white"/>
</mask>
<g mask="url(#mask5_325_3418)">
<path d="M129.313 103.578H110.636V178.422H129.313V103.578Z" fill="#0083CA"/>
</g>
</g>
<mask id="mask6_325_3418" style="mask-type:luminance" maskUnits="userSpaceOnUse" x="68" y="0" width="104" height="104">
<path d="M171.378 0H68V103.655H171.378V0Z" fill="white"/>
</mask>
<g mask="url(#mask6_325_3418)">
<path d="M171.302 51.7893C171.302 52.6398 171.279 53.4827 171.241 54.3332C171.203 55.1761 171.135 56.0266 171.052 56.8695C170.969 57.7125 170.863 58.5554 170.741 59.3907C170.62 60.226 170.476 61.0613 170.31 61.8966C170.143 62.7243 169.961 63.5521 169.757 64.3798C169.552 65.1999 169.325 66.02 169.083 66.8326C168.84 67.6451 168.575 68.4501 168.288 69.2474C168 70.0447 167.697 70.8345 167.379 71.6166C167.053 72.3988 166.712 73.1734 166.349 73.9403C165.985 74.7073 165.607 75.4667 165.213 76.2109C164.819 76.9551 164.395 77.6993 163.963 78.4207C163.531 79.1497 163.077 79.8635 162.607 80.5697C162.138 81.2759 161.653 81.967 161.146 82.6504C160.638 83.3338 160.123 84.0021 159.586 84.6552C159.048 85.3082 158.495 85.9537 157.927 86.5764C157.359 87.2067 156.776 87.8218 156.178 88.4141C155.579 89.014 154.966 89.5987 154.345 90.1682C153.716 90.7378 153.08 91.2921 152.429 91.8313C151.777 92.3704 151.111 92.8868 150.429 93.3956C149.748 93.8968 149.059 94.3904 148.354 94.8612C147.65 95.332 146.938 95.7876 146.211 96.2205C145.484 96.6533 144.749 97.071 144.007 97.4734C143.265 97.8759 142.508 98.2556 141.743 98.6125C140.978 98.977 140.205 99.3187 139.425 99.6453C138.645 99.9718 137.857 100.276 137.062 100.557C136.267 100.845 135.464 101.111 134.654 101.354C133.844 101.597 133.033 101.825 132.208 102.03C131.39 102.235 130.564 102.425 129.731 102.584C128.906 102.751 128.073 102.895 127.232 103.017C126.399 103.138 125.558 103.245 124.718 103.328C123.877 103.412 123.036 103.473 122.188 103.518C121.347 103.556 120.499 103.579 119.651 103.579C118.803 103.579 117.962 103.556 117.114 103.518C116.266 103.48 115.425 103.412 114.584 103.328C113.744 103.245 112.903 103.138 112.07 103.017C111.237 102.895 110.404 102.751 109.571 102.584C108.745 102.417 107.92 102.235 107.094 102.03C106.276 101.825 105.458 101.597 104.648 101.354C103.838 101.111 103.035 100.845 102.24 100.557C101.444 100.268 100.657 99.9642 99.8766 99.6453C99.0966 99.3187 98.3241 98.977 97.5592 98.6125C96.7942 98.248 96.0369 97.8683 95.2947 97.4734C94.5525 97.071 93.8103 96.6533 93.0908 96.2205C92.3714 95.7876 91.6519 95.332 90.9475 94.8612C90.2432 94.3904 89.554 93.9044 88.8724 93.3956C88.1908 92.8944 87.5243 92.3704 86.873 91.8313C86.2217 91.2921 85.578 90.7378 84.9569 90.1682C84.3283 89.5987 83.7149 89.014 83.1242 88.4141C82.5259 87.8142 81.9427 87.1991 81.3747 86.5764C80.8067 85.9461 80.2538 85.3082 79.7161 84.6552C79.1784 84.0021 78.6634 83.3338 78.156 82.6504C77.6486 81.967 77.1639 81.2759 76.6943 80.5697C76.2247 79.8635 75.7704 79.1497 75.3387 78.4207C74.907 77.6917 74.4904 76.9551 74.0891 76.2109C73.6877 75.4667 73.309 74.7073 72.953 73.9403C72.5895 73.1734 72.2487 72.3988 71.923 71.6166C71.5974 70.8345 71.2944 70.0447 71.0142 69.2474C70.7264 68.4501 70.4614 67.6451 70.219 66.8326C69.9767 66.02 69.7495 65.2075 69.545 64.3798C69.3405 63.5597 69.1512 62.7319 68.9921 61.8966C68.8331 61.0613 68.6816 60.2336 68.5604 59.3907C68.4393 58.5554 68.3332 57.7125 68.2499 56.8695C68.1666 56.0266 68.106 55.1837 68.0606 54.3332C68.0227 53.4903 68 52.6398 68 51.7893C68 50.9388 68.0227 50.0959 68.0606 49.2454C68.0984 48.4025 68.1666 47.552 68.2499 46.7091C68.3332 45.8662 68.4393 45.0233 68.5604 44.1879C68.6816 43.3526 68.8255 42.5173 68.9921 41.682C69.1587 40.8543 69.3405 40.0266 69.545 39.1988C69.7495 38.3787 69.9767 37.5586 70.219 36.746C70.4614 35.9335 70.7264 35.1286 71.0142 34.3312C71.302 33.5339 71.605 32.7441 71.923 31.962C72.2487 31.1798 72.5895 30.4052 72.953 29.6383C73.3166 28.8713 73.6952 28.1119 74.0891 27.3677C74.4904 26.6235 74.907 25.8794 75.3387 25.1579C75.7704 24.4289 76.2247 23.7151 76.6943 23.0089C77.1639 22.3027 77.6486 21.6117 78.156 20.9282C78.6634 20.2448 79.1784 19.5765 79.7161 18.9235C80.2538 18.2704 80.8067 17.6249 81.3747 17.0022C81.9427 16.372 82.5259 15.7569 83.1242 15.1645C83.7225 14.5646 84.3359 13.9799 84.9569 13.4104C85.5855 12.8409 86.2217 12.2865 86.873 11.7473C87.5243 11.2082 88.1908 10.6918 88.8724 10.183C89.554 9.68184 90.2432 9.18825 90.9475 8.71743C91.6519 8.24662 92.3638 7.79099 93.0908 7.35815C93.8179 6.9253 94.5525 6.50764 95.2947 6.10517C96.0369 5.7027 96.7942 5.32302 97.5592 4.95852C98.3241 4.59401 99.0966 4.25229 99.8766 3.92576C100.657 3.59923 101.444 3.29548 102.24 3.01451C103.035 2.73354 103.838 2.46016 104.648 2.21716C105.458 1.97416 106.269 1.74635 107.094 1.54132C107.912 1.33629 108.738 1.14644 109.571 0.986972C110.396 0.819909 111.229 0.675627 112.07 0.554127C112.903 0.432626 113.744 0.326313 114.584 0.242782C115.425 0.15925 116.266 0.0985003 117.114 0.0529377C117.962 0.00737504 118.803 -0.0078125 119.651 -0.0078125C120.499 -0.0078125 121.34 0.0149688 122.188 0.0529377C123.029 0.0909065 123.877 0.15925 124.718 0.242782C125.558 0.326313 126.399 0.432626 127.232 0.554127C128.065 0.675627 128.898 0.819909 129.731 0.986972C130.557 1.15403 131.382 1.33629 132.208 1.54132C133.026 1.74635 133.844 1.97416 134.654 2.21716C135.464 2.46016 136.267 2.72595 137.062 3.01451C137.857 3.30307 138.645 3.60682 139.425 3.92576C140.205 4.25229 140.978 4.59401 141.743 4.95852C142.508 5.32302 143.265 5.7027 144.007 6.10517C144.749 6.50764 145.491 6.9253 146.211 7.35815C146.938 7.79099 147.65 8.24662 148.354 8.71743C149.059 9.18825 149.748 9.67425 150.429 10.183C151.111 10.6842 151.777 11.2082 152.429 11.7473C153.08 12.2865 153.724 12.8409 154.345 13.4104C154.973 13.9799 155.587 14.5646 156.178 15.1645C156.776 15.7645 157.359 16.3795 157.927 17.0022C158.495 17.6325 159.048 18.2704 159.586 18.9235C160.123 19.5765 160.638 20.2448 161.146 20.9282C161.653 21.6117 162.138 22.3027 162.607 23.0089C163.077 23.7151 163.531 24.4289 163.963 25.1579C164.395 25.887 164.811 26.6235 165.213 27.3677C165.614 28.1119 165.993 28.8713 166.349 29.6383C166.712 30.4052 167.053 31.1798 167.379 31.962C167.704 32.7441 168.007 33.5339 168.288 34.3312C168.575 35.1286 168.84 35.9335 169.083 36.746C169.325 37.5586 169.552 38.3711 169.757 39.1988C169.961 40.0266 170.151 40.8467 170.31 41.682C170.476 42.5097 170.62 43.345 170.741 44.1879C170.863 45.0233 170.969 45.8662 171.052 46.7091C171.135 47.552 171.196 48.3949 171.241 49.2454C171.287 50.0959 171.302 50.9388 171.302 51.7893Z" fill="#0083CA"/>
</g>
<path d="M118.789 53.568C118.085 54.4427 117.659 55.2747 117.509 56.064H127.397V60H112.581C112.496 57.888 112.645 56.1813 113.029 54.88C113.413 53.5787 114.096 52.352 115.077 51.2C115.76 50.368 116.955 49.28 118.661 47.936C120.389 46.592 121.317 45.8667 121.445 45.76C122.405 44.928 122.885 44.0853 122.885 43.232C122.885 42.5067 122.608 41.9093 122.053 41.44C121.52 40.9707 120.827 40.736 119.973 40.736C119.077 40.736 118.213 41.024 117.381 41.6C116.549 42.176 115.877 42.9013 115.365 43.776L112.101 41.536C112.869 40.0853 113.936 38.912 115.301 38.016C116.667 37.12 118.267 36.672 120.101 36.672C122.299 36.672 124.08 37.2587 125.445 38.432C126.811 39.584 127.493 41.1093 127.493 43.008C127.493 44.7787 126.8 46.3893 125.413 47.84C124.709 48.544 123.568 49.4933 121.989 50.688C120.411 51.8827 119.344 52.8427 118.789 53.568Z" fill="white"/>
</svg>
