<svg width="240" height="247" viewBox="0 0 240 247" fill="none" xmlns="http://www.w3.org/2000/svg">
<path d="M78.2239 222.948H72.1219V226.512H77.6299V228.33H72.1219V232.2H78.0619V234H70.0519V222.048C70.0519 221.76 70.1419 221.538 70.3219 221.382C70.5139 221.226 70.7419 221.148 71.0059 221.148H78.2239V222.948ZM83.1364 234.198C81.6004 234.198 80.3884 233.73 79.5004 232.794L80.3464 231.552C81.2104 232.284 82.1284 232.65 83.1004 232.65C83.5804 232.65 83.9944 232.554 84.3424 232.362C84.6904 232.17 84.8644 231.888 84.8644 231.516C84.8644 231.396 84.8404 231.288 84.7924 231.192C84.7564 231.084 84.6904 230.988 84.5944 230.904C84.5104 230.82 84.4264 230.748 84.3424 230.688C84.2584 230.628 84.1324 230.568 83.9644 230.508C83.8084 230.448 83.6824 230.4 83.5864 230.364C83.4904 230.328 83.3404 230.28 83.1364 230.22C82.9444 230.16 82.8064 230.118 82.7224 230.094C81.8584 229.818 81.1864 229.488 80.7064 229.104C80.2384 228.72 80.0044 228.174 80.0044 227.466C80.0044 226.614 80.3344 225.954 80.9944 225.486C81.6544 225.006 82.4884 224.766 83.4964 224.766C84.7324 224.766 85.8004 225.102 86.7004 225.774L85.8904 227.034C85.1104 226.518 84.3304 226.26 83.5504 226.26C83.0704 226.26 82.6804 226.362 82.3804 226.566C82.0804 226.758 81.9304 227.01 81.9304 227.322C81.9304 227.502 81.9724 227.664 82.0564 227.808C82.1524 227.94 82.3084 228.06 82.5244 228.168C82.7404 228.276 82.9144 228.354 83.0464 228.402C83.1904 228.45 83.4244 228.522 83.7484 228.618C84.2524 228.774 84.6424 228.912 84.9184 229.032C85.2064 229.152 85.5184 229.32 85.8544 229.536C86.2024 229.74 86.4544 229.998 86.6104 230.31C86.7664 230.61 86.8444 230.97 86.8444 231.39C86.8444 232.278 86.4844 232.968 85.7644 233.46C85.0444 233.952 84.1684 234.198 83.1364 234.198ZM94.1123 231.894L94.7963 233.352C94.0163 233.916 93.1403 234.198 92.1683 234.198C91.2203 234.198 90.5003 233.916 90.0083 233.352C89.5163 232.776 89.2703 231.99 89.2703 230.994V226.44H87.8123V225H89.2703V222.21H91.2143V225H94.2743V226.44H91.2143V230.94C91.2143 231.456 91.3463 231.834 91.6103 232.074C91.8863 232.302 92.2043 232.416 92.5643 232.416C93.0803 232.416 93.5963 232.242 94.1123 231.894ZM99.9496 232.56C100.934 232.56 101.858 232.212 102.722 231.516L103.622 232.83C102.554 233.742 101.294 234.198 99.8416 234.198C98.5456 234.198 97.4896 233.79 96.6736 232.974C95.8696 232.146 95.4676 231.03 95.4676 229.626C95.4676 228.258 95.8756 227.106 96.6916 226.17C97.5196 225.234 98.6596 224.766 100.112 224.766C101.108 224.766 101.966 225.042 102.686 225.594C103.406 226.134 103.766 226.896 103.766 227.88C103.766 228.6 103.544 229.182 103.1 229.626C102.656 230.07 102.008 230.292 101.156 230.292H97.3576C97.5976 231.804 98.4616 232.56 99.9496 232.56ZM100.058 226.278C99.3376 226.278 98.7256 226.512 98.2216 226.98C97.7296 227.448 97.4296 228.09 97.3216 228.906H100.796C101.156 228.906 101.438 228.81 101.642 228.618C101.846 228.426 101.948 228.15 101.948 227.79C101.948 227.37 101.774 227.016 101.426 226.728C101.09 226.428 100.634 226.278 100.058 226.278ZM110.356 224.766C110.8 224.766 111.214 224.856 111.598 225.036L111.22 226.656C110.8 226.536 110.458 226.476 110.194 226.476C109.27 226.476 108.412 226.872 107.62 227.664V234H105.658V225H107.566V226.098C108.358 225.21 109.288 224.766 110.356 224.766ZM114.736 223.47C114.52 223.698 114.226 223.812 113.854 223.812C113.482 223.812 113.182 223.698 112.954 223.47C112.738 223.242 112.63 222.936 112.63 222.552C112.63 222.168 112.738 221.868 112.954 221.652C113.182 221.424 113.482 221.31 113.854 221.31C114.226 221.31 114.52 221.424 114.736 221.652C114.952 221.868 115.06 222.168 115.06 222.552C115.06 222.936 114.952 223.242 114.736 223.47ZM112.864 234V225H114.808V234H112.864ZM117.259 234V221.148H119.221V234H117.259ZM123.508 223.47C123.292 223.698 122.998 223.812 122.626 223.812C122.254 223.812 121.954 223.698 121.726 223.47C121.51 223.242 121.402 222.936 121.402 222.552C121.402 222.168 121.51 221.868 121.726 221.652C121.954 221.424 122.254 221.31 122.626 221.31C122.998 221.31 123.292 221.424 123.508 221.652C123.724 221.868 123.832 222.168 123.832 222.552C123.832 222.936 123.724 223.242 123.508 223.47ZM121.636 234V225H123.58V234H121.636ZM126.066 234C125.706 234 125.472 233.802 125.364 233.406C125.256 232.998 125.316 232.668 125.544 232.416L130.368 226.512H125.706V225H131.988C132.336 225 132.558 225.21 132.654 225.63C132.762 226.05 132.696 226.392 132.456 226.656L127.668 232.47H132.726V234H126.066ZM138.065 224.766C139.265 224.766 140.213 225.09 140.909 225.738C141.605 226.386 141.953 227.31 141.953 228.51V234H140.171V232.632C139.487 233.688 138.467 234.216 137.111 234.216C136.187 234.216 135.437 233.964 134.861 233.46C134.297 232.944 134.015 232.272 134.015 231.444C134.015 230.412 134.423 229.662 135.239 229.194C136.055 228.726 137.111 228.492 138.407 228.492C138.923 228.492 139.493 228.534 140.117 228.618V228.42C140.117 227.76 139.931 227.262 139.559 226.926C139.187 226.578 138.659 226.404 137.975 226.404C137.003 226.404 136.079 226.758 135.203 227.466L134.267 226.206C135.263 225.246 136.529 224.766 138.065 224.766ZM137.525 232.722C138.317 232.722 138.935 232.458 139.379 231.93C139.823 231.39 140.069 230.694 140.117 229.842C139.493 229.782 138.977 229.752 138.569 229.752C136.841 229.752 135.977 230.286 135.977 231.354C135.977 231.762 136.115 232.092 136.391 232.344C136.679 232.596 137.057 232.722 137.525 232.722ZM148.146 234.216C146.85 234.216 145.794 233.796 144.978 232.956C144.174 232.104 143.772 230.958 143.772 229.518C143.772 228.078 144.18 226.926 144.996 226.062C145.812 225.198 146.904 224.766 148.272 224.766C150.048 224.766 151.302 225.462 152.034 226.854L150.486 227.736C150.018 226.86 149.286 226.422 148.29 226.422C147.558 226.422 146.952 226.686 146.472 227.214C145.992 227.73 145.752 228.498 145.752 229.518C145.752 230.526 145.98 231.282 146.436 231.786C146.904 232.29 147.504 232.542 148.236 232.542C149.208 232.542 150.018 232.038 150.666 231.03L152.124 231.93C151.788 232.59 151.278 233.136 150.594 233.568C149.922 234 149.106 234.216 148.146 234.216ZM147.696 238.446C146.964 238.446 146.34 238.296 145.824 237.996L146.256 236.79C146.688 237.006 147.108 237.114 147.516 237.114C147.816 237.114 148.056 237.06 148.236 236.952C148.416 236.844 148.506 236.7 148.506 236.52C148.506 236.088 148.026 235.884 147.066 235.908L147.264 234.756C148.188 234.708 148.884 234.852 149.352 235.188C149.832 235.524 150.072 235.986 150.072 236.574C150.072 237.09 149.856 237.528 149.424 237.888C148.992 238.26 148.416 238.446 147.696 238.446ZM156.253 222.804C155.821 222.804 155.491 223.134 155.263 223.794L153.985 223.308C154.141 222.672 154.411 222.198 154.795 221.886C155.179 221.562 155.629 221.4 156.145 221.4C156.565 221.4 157.009 221.568 157.477 221.904C157.957 222.228 158.311 222.39 158.539 222.39C158.983 222.39 159.295 222.054 159.475 221.382L160.825 221.796C160.705 222.408 160.435 222.894 160.015 223.254C159.595 223.614 159.145 223.794 158.665 223.794C158.257 223.794 157.807 223.632 157.314 223.308C156.823 222.972 156.469 222.804 156.253 222.804ZM157.243 224.766C158.443 224.766 159.391 225.09 160.087 225.738C160.783 226.386 161.131 227.31 161.131 228.51V234H159.349V232.632C158.665 233.688 157.645 234.216 156.289 234.216C155.365 234.216 154.615 233.964 154.039 233.46C153.475 232.944 153.193 232.272 153.193 231.444C153.193 230.412 153.601 229.662 154.417 229.194C155.233 228.726 156.289 228.492 157.585 228.492C158.101 228.492 158.671 228.534 159.295 228.618V228.42C159.295 227.76 159.109 227.262 158.737 226.926C158.365 226.578 157.837 226.404 157.153 226.404C156.181 226.404 155.257 226.758 154.381 227.466L153.445 226.206C154.441 225.246 155.707 224.766 157.243 224.766ZM156.703 232.722C157.495 232.722 158.113 232.458 158.557 231.93C159.001 231.39 159.247 230.694 159.295 229.842C158.671 229.782 158.155 229.752 157.747 229.752C156.019 229.752 155.155 230.286 155.155 231.354C155.155 231.762 155.293 232.092 155.569 232.344C155.857 232.596 156.235 232.722 156.703 232.722ZM167.36 234.234C166.016 234.234 164.942 233.802 164.138 232.938C163.334 232.074 162.938 230.928 162.95 229.5C162.962 228.06 163.364 226.914 164.156 226.062C164.96 225.198 166.028 224.766 167.36 224.766C168.716 224.766 169.79 225.198 170.582 226.062C171.386 226.914 171.788 228.06 171.788 229.5C171.788 230.928 171.386 232.074 170.582 232.938C169.79 233.802 168.716 234.234 167.36 234.234ZM164.894 229.5C164.894 231.552 165.716 232.578 167.36 232.578C169.004 232.578 169.826 231.552 169.826 229.5C169.826 227.448 169.004 226.422 167.36 226.422C166.556 226.422 165.944 226.686 165.524 227.214C165.104 227.73 164.894 228.492 164.894 229.5Z" fill="#005988"/>
<mask id="mask0_325_3453" style="mask-type:luminance" maskUnits="userSpaceOnUse" x="0" y="140" width="240" height="57">
<path d="M240 140.902H0V196.902H240V140.902Z" fill="white"/>
</mask>
<g mask="url(#mask0_325_3453)">
<mask id="mask1_325_3453" style="mask-type:luminance" maskUnits="userSpaceOnUse" x="0" y="140" width="240" height="57">
<path d="M221.619 196.902H0.119019L18.441 168.906L0.119019 140.902H221.619L239.911 168.906L221.619 196.902Z" fill="white"/>
</mask>
<g mask="url(#mask1_325_3453)">
<path d="M240.297 140.686H0V197.127H240.297V140.686Z" fill="#005988"/>
</g>
</g>
<mask id="mask2_325_3453" style="mask-type:luminance" maskUnits="userSpaceOnUse" x="69" y="0" width="104" height="104">
<path d="M172.378 0H69V103.655H172.378V0Z" fill="white"/>
</mask>
<g mask="url(#mask2_325_3453)">
<path d="M172.294 51.7893C172.294 52.6398 172.271 53.4827 172.233 54.3332C172.196 55.1761 172.127 56.0266 172.044 56.8695C171.961 57.7125 171.855 58.5554 171.734 59.3907C171.612 60.226 171.469 61.0613 171.302 61.8966C171.135 62.7243 170.953 63.5521 170.749 64.3798C170.545 65.1999 170.317 66.02 170.075 66.8326C169.833 67.6451 169.568 68.4501 169.28 69.2474C168.992 70.0447 168.689 70.8345 168.371 71.6166C168.045 72.3988 167.704 73.1734 167.341 73.9403C166.977 74.7073 166.599 75.4667 166.205 76.2109C165.804 76.9551 165.387 77.6993 164.955 78.4207C164.524 79.1497 164.069 79.8635 163.6 80.5697C163.13 81.2759 162.645 81.967 162.138 82.6504C161.638 83.3338 161.116 84.0021 160.578 84.6552C160.04 85.3082 159.487 85.9537 158.919 86.5764C158.351 87.1991 157.768 87.8218 157.17 88.4141C156.572 89.014 155.958 89.5987 155.337 90.1682C154.716 90.7378 154.072 91.2921 153.421 91.8313C152.77 92.3704 152.103 92.8868 151.422 93.3956C150.74 93.8968 150.051 94.3904 149.346 94.8612C148.642 95.332 147.93 95.7876 147.203 96.2205C146.476 96.6533 145.741 97.071 144.999 97.4734C144.257 97.8759 143.5 98.2556 142.735 98.6125C141.97 98.977 141.197 99.3187 140.417 99.6453C139.637 99.9718 138.85 100.276 138.054 100.557C137.259 100.845 136.456 101.111 135.646 101.354C134.836 101.597 134.025 101.825 133.2 102.03C132.382 102.235 131.556 102.425 130.723 102.584C129.898 102.751 129.065 102.895 128.224 103.017C127.391 103.138 126.55 103.245 125.71 103.328C124.869 103.412 124.028 103.473 123.18 103.518C122.34 103.556 121.491 103.579 120.643 103.579C119.795 103.579 118.954 103.556 118.106 103.518C117.265 103.48 116.417 103.412 115.576 103.328C114.736 103.245 113.895 103.138 113.062 103.017C112.229 102.895 111.396 102.751 110.563 102.584C109.737 102.417 108.912 102.235 108.086 102.03C107.268 101.825 106.45 101.597 105.64 101.354C104.83 101.111 104.027 100.845 103.232 100.557C102.437 100.268 101.649 99.9642 100.869 99.6453C100.089 99.3187 99.3163 98.977 98.5514 98.6125C97.7865 98.248 97.0291 97.8683 96.2869 97.4734C95.5447 97.071 94.8025 96.6533 94.083 96.2205C93.356 95.7876 92.6441 95.332 91.9397 94.8612C91.2354 94.3904 90.5462 93.9044 89.8646 93.3956C89.183 92.8944 88.5165 92.3704 87.8652 91.8313C87.2139 91.2921 86.5702 90.7378 85.9491 90.1682C85.3205 89.5987 84.7071 89.014 84.1164 88.4141C83.5181 87.8142 82.9349 87.1991 82.3669 86.5764C81.7989 85.9461 81.246 85.3082 80.7083 84.6552C80.1706 84.0021 79.6556 83.3338 79.1482 82.6504C78.6408 81.967 78.156 81.2759 77.6865 80.5697C77.2169 79.8635 76.7625 79.1497 76.3309 78.4207C75.8992 77.6917 75.4827 76.9551 75.0813 76.2109C74.6799 75.4667 74.3012 74.7073 73.9453 73.9403C73.5817 73.1734 73.2409 72.3988 72.9152 71.6166C72.5896 70.8345 72.2866 70.0447 72.0064 69.2474C71.7186 68.4501 71.4536 67.6451 71.2112 66.8326C70.9689 66.02 70.7417 65.2075 70.5372 64.3798C70.3327 63.5597 70.1433 62.7319 69.9843 61.8966C69.8177 61.0689 69.6738 60.2336 69.5526 59.3907C69.4314 58.5554 69.3254 57.7125 69.2421 56.8695C69.1588 56.0266 69.0982 55.1837 69.0528 54.3332C69.0149 53.4903 68.9922 52.6398 68.9922 51.7893C68.9922 50.9388 69.0149 50.0959 69.0528 49.2454C69.0907 48.3949 69.1588 47.552 69.2421 46.7091C69.3254 45.8662 69.4314 45.0233 69.5526 44.1879C69.6738 43.3526 69.8177 42.5173 69.9843 41.682C70.1509 40.8543 70.3327 40.0266 70.5372 39.1988C70.7417 38.3787 70.9689 37.5586 71.2112 36.746C71.4536 35.9335 71.7186 35.1286 72.0064 34.3312C72.2942 33.5339 72.5971 32.7441 72.9152 31.962C73.2409 31.1798 73.5817 30.4052 73.9453 29.6383C74.3088 28.8713 74.6874 28.1119 75.0813 27.3677C75.4827 26.6235 75.8992 25.8794 76.3309 25.1579C76.7625 24.4289 77.2169 23.7151 77.6865 23.0089C78.156 22.3027 78.6408 21.6117 79.1482 20.9282C79.6556 20.2448 80.1706 19.5765 80.7083 18.9235C81.246 18.2704 81.7989 17.6249 82.3669 17.0022C82.9349 16.372 83.5181 15.7569 84.1164 15.1645C84.7147 14.5646 85.3281 13.9799 85.9491 13.4104C86.5777 12.8409 87.2139 12.2865 87.8652 11.7473C88.5165 11.2082 89.183 10.6918 89.8646 10.183C90.5462 9.68184 91.2354 9.18825 91.9397 8.71743C92.6441 8.24662 93.356 7.79099 94.083 7.35815C94.8101 6.9253 95.5447 6.50764 96.2869 6.10517C97.0291 5.7027 97.7865 5.32302 98.5514 4.95852C99.3163 4.59401 100.089 4.25229 100.869 3.92576C101.649 3.59923 102.437 3.29548 103.232 3.01451C104.027 2.73354 104.83 2.46016 105.64 2.21716C106.45 1.97416 107.261 1.74635 108.086 1.54132C108.904 1.33629 109.73 1.14644 110.563 0.986972C111.388 0.819909 112.221 0.675627 113.062 0.554127C113.895 0.432626 114.736 0.326313 115.576 0.242782C116.417 0.15925 117.258 0.0985003 118.106 0.0529377C118.947 0.0149688 119.795 -0.0078125 120.643 -0.0078125C121.491 -0.0078125 122.332 0.0149688 123.18 0.0529377C124.021 0.0909065 124.869 0.15925 125.71 0.242782C126.55 0.326313 127.391 0.432626 128.224 0.554127C129.057 0.675627 129.89 0.819909 130.723 0.986972C131.549 1.15403 132.374 1.33629 133.2 1.54132C134.018 1.74635 134.836 1.97416 135.646 2.21716C136.456 2.46016 137.259 2.72595 138.054 3.01451C138.85 3.30307 139.637 3.60682 140.417 3.92576C141.197 4.2447 141.97 4.59401 142.735 4.95852C143.5 5.32302 144.257 5.7027 144.999 6.10517C145.741 6.50764 146.484 6.9253 147.203 7.35815C147.93 7.79099 148.642 8.24662 149.346 8.71743C150.051 9.18825 150.74 9.67425 151.422 10.183C152.103 10.6842 152.77 11.2082 153.421 11.7473C154.072 12.2865 154.716 12.8409 155.337 13.4104C155.958 13.9799 156.579 14.5646 157.17 15.1645C157.768 15.7645 158.351 16.3795 158.919 17.0022C159.487 17.6249 160.04 18.2704 160.578 18.9235C161.116 19.5765 161.631 20.2448 162.138 20.9282C162.638 21.6117 163.13 22.3027 163.6 23.0089C164.069 23.7151 164.524 24.4289 164.955 25.1579C165.387 25.887 165.804 26.6235 166.205 27.3677C166.606 28.1119 166.985 28.8713 167.341 29.6383C167.704 30.4052 168.045 31.1798 168.371 31.962C168.697 32.7441 169 33.5339 169.28 34.3312C169.568 35.1286 169.833 35.9335 170.075 36.746C170.317 37.5586 170.545 38.3711 170.749 39.1988C170.953 40.019 171.143 40.8467 171.302 41.682C171.469 42.5097 171.612 43.345 171.734 44.1879C171.855 45.0233 171.961 45.8662 172.044 46.7091C172.127 47.552 172.188 48.3949 172.233 49.2454C172.271 50.0883 172.294 50.9388 172.294 51.7893Z" fill="#005988"/>
</g>
<mask id="mask3_325_3453" style="mask-type:luminance" maskUnits="userSpaceOnUse" x="111" y="103" width="18" height="76">
<path d="M113.81 169.401C113.81 166.03 116.566 163.265 119.929 163.265C123.292 163.265 126.048 166.03 126.048 169.401C126.048 172.773 123.292 175.537 119.929 175.537C116.566 175.582 113.81 172.818 113.81 169.401ZM128.843 169.401C128.843 164.951 125.571 161.253 121.323 160.554V103.586H118.52V160.6C114.272 161.253 111 165.004 111 169.447C111 174.413 115.014 178.392 119.921 178.392C124.829 178.392 128.843 174.367 128.843 169.401Z" fill="white"/>
</mask>
<g mask="url(#mask3_325_3453)">
<path d="M129.26 103.578H110.583V178.422H129.26V103.578Z" fill="#005988"/>
</g>
<mask id="mask4_325_3453" style="mask-type:luminance" maskUnits="userSpaceOnUse" x="113" y="161" width="16" height="16">
<path d="M128.177 161.816H113V176.958H128.177V161.816Z" fill="white"/>
</mask>
<g mask="url(#mask4_325_3453)">
<mask id="mask5_325_3453" style="mask-type:luminance" maskUnits="userSpaceOnUse" x="113" y="161" width="16" height="16">
<path d="M127.534 172.285C129.124 168.438 127.301 164.027 123.464 162.433C119.627 160.839 115.228 162.666 113.638 166.514C112.049 170.361 113.871 174.772 117.708 176.366C121.546 177.96 125.945 176.133 127.534 172.285Z" fill="white"/>
</mask>
<g mask="url(#mask5_325_3453)">
<path d="M129.919 103.58H111.243V178.424H129.919V103.58Z" fill="white"/>
</g>
</g>
<path d="M124.011 47.968C125.163 48.3947 126.07 49.12 126.731 50.144C127.393 51.168 127.723 52.288 127.723 53.504C127.723 55.616 126.902 57.2907 125.259 58.528C123.617 59.7653 121.665 60.384 119.403 60.384C117.547 60.384 115.937 60 114.571 59.232C113.206 58.4427 112.214 57.4187 111.595 56.16L114.635 53.76C115.681 55.4667 117.238 56.32 119.307 56.32C120.481 56.32 121.43 56.0213 122.155 55.424C122.902 54.8267 123.275 54.112 123.275 53.28C123.275 52.3413 122.913 51.616 122.187 51.104C121.462 50.592 120.534 50.336 119.403 50.336H116.171V46.592H118.763C120.001 46.592 120.982 46.2933 121.707 45.696C122.433 45.0987 122.795 44.3733 122.795 43.52C122.795 42.7307 122.497 42.0693 121.899 41.536C121.323 41.0027 120.523 40.736 119.499 40.736C117.814 40.736 116.427 41.5253 115.339 43.104L112.171 40.96C112.918 39.6587 113.953 38.624 115.275 37.856C116.619 37.0667 118.145 36.672 119.851 36.672C122.006 36.672 123.777 37.28 125.163 38.496C126.571 39.6907 127.275 41.1733 127.275 42.944C127.275 44.0107 126.987 44.9813 126.411 45.856C125.835 46.7307 125.035 47.4347 124.011 47.968Z" fill="white"/>
</svg>
