<svg width="240" height="247" viewBox="0 0 240 247" fill="none" xmlns="http://www.w3.org/2000/svg">
<path d="M109.169 234L106.163 228.942H104.615V234H102.581V222.03C102.581 221.778 102.665 221.568 102.833 221.4C103.001 221.232 103.211 221.148 103.463 221.148H107.171C108.515 221.148 109.547 221.508 110.267 222.228C110.999 222.948 111.365 223.896 111.365 225.072C111.365 226.056 111.107 226.866 110.591 227.502C110.075 228.138 109.331 228.564 108.359 228.78L111.653 234H109.169ZM104.615 222.93V227.214H106.775C107.591 227.214 108.209 227.028 108.629 226.656C109.049 226.284 109.259 225.744 109.259 225.036C109.259 224.388 109.049 223.878 108.629 223.506C108.209 223.122 107.615 222.93 106.847 222.93H104.615ZM117.079 234.234C115.735 234.234 114.661 233.802 113.857 232.938C113.053 232.074 112.657 230.928 112.669 229.5C112.681 228.06 113.083 226.914 113.875 226.062C114.679 225.198 115.747 224.766 117.079 224.766C118.435 224.766 119.509 225.198 120.301 226.062C121.105 226.914 121.507 228.06 121.507 229.5C121.507 230.928 121.105 232.074 120.301 232.938C119.509 233.802 118.435 234.234 117.079 234.234ZM114.613 229.5C114.613 231.552 115.435 232.578 117.079 232.578C118.723 232.578 119.545 231.552 119.545 229.5C119.545 227.448 118.723 226.422 117.079 226.422C116.275 226.422 115.663 226.686 115.243 227.214C114.823 227.73 114.613 228.492 114.613 229.5ZM128.698 231.894L129.382 233.352C128.602 233.916 127.726 234.198 126.754 234.198C125.806 234.198 125.086 233.916 124.594 233.352C124.102 232.776 123.856 231.99 123.856 230.994V226.44H122.398V225H123.856V222.21H125.8V225H128.86V226.44H125.8V230.94C125.8 231.456 125.932 231.834 126.196 232.074C126.472 232.302 126.79 232.416 127.15 232.416C127.666 232.416 128.182 232.242 128.698 231.894ZM133.961 224.766C135.161 224.766 136.109 225.09 136.805 225.738C137.501 226.386 137.849 227.31 137.849 228.51V234H136.067V232.632C135.383 233.688 134.363 234.216 133.007 234.216C132.083 234.216 131.333 233.964 130.757 233.46C130.193 232.944 129.911 232.272 129.911 231.444C129.911 230.412 130.319 229.662 131.135 229.194C131.951 228.726 133.007 228.492 134.303 228.492C134.819 228.492 135.389 228.534 136.013 228.618V228.42C136.013 227.76 135.827 227.262 135.455 226.926C135.083 226.578 134.555 226.404 133.871 226.404C132.899 226.404 131.975 226.758 131.099 227.466L130.163 226.206C131.159 225.246 132.425 224.766 133.961 224.766ZM133.421 232.722C134.213 232.722 134.831 232.458 135.275 231.93C135.719 231.39 135.965 230.694 136.013 229.842C135.389 229.782 134.873 229.752 134.465 229.752C132.737 229.752 131.873 230.286 131.873 231.354C131.873 231.762 132.011 232.092 132.287 232.344C132.575 232.596 132.953 232.722 133.421 232.722Z" fill="#0083CA"/>
<mask id="mask0_325_3485" style="mask-type:luminance" maskUnits="userSpaceOnUse" x="0" y="140" width="240" height="57">
<path d="M240 140.902H0V196.902H240V140.902Z" fill="white"/>
</mask>
<g mask="url(#mask0_325_3485)">
<mask id="mask1_325_3485" style="mask-type:luminance" maskUnits="userSpaceOnUse" x="0" y="140" width="240" height="57">
<path d="M221.619 196.902H0.119019L18.4509 168.906L0.119019 140.902H221.619L239.921 168.906L221.619 196.902Z" fill="white"/>
</mask>
<g mask="url(#mask1_325_3485)">
<path d="M240.297 140.686H0V197.127H240.297V140.686Z" fill="#0083CA"/>
</g>
</g>
<mask id="mask2_325_3485" style="mask-type:luminance" maskUnits="userSpaceOnUse" x="113" y="161" width="16" height="16">
<path d="M128.177 161.816H113V176.958H128.177V161.816Z" fill="white"/>
</mask>
<g mask="url(#mask2_325_3485)">
<mask id="mask3_325_3485" style="mask-type:luminance" maskUnits="userSpaceOnUse" x="113" y="161" width="16" height="16">
<path d="M127.539 172.287C129.128 168.44 127.306 164.029 123.469 162.435C119.631 160.841 115.232 162.668 113.643 166.516C112.053 170.363 113.875 174.774 117.713 176.368C121.55 177.962 125.949 176.135 127.539 172.287Z" fill="white"/>
</mask>
<g mask="url(#mask3_325_3485)">
<path d="M129.927 103.58H111.251V178.424H129.927V103.58Z" fill="white"/>
</g>
</g>
<mask id="mask4_325_3485" style="mask-type:luminance" maskUnits="userSpaceOnUse" x="111" y="103" width="18" height="76">
<path d="M113.802 169.401C113.802 166.03 116.559 163.265 119.922 163.265C123.284 163.265 126.041 166.03 126.041 169.401C126.041 172.773 123.284 175.537 119.922 175.537C116.559 175.582 113.802 172.818 113.802 169.401ZM128.843 169.401C128.843 164.951 125.571 161.253 121.323 160.554V103.586H118.52V160.6C114.272 161.253 111 165.004 111 169.447C111 174.413 115.014 178.392 119.922 178.392C124.829 178.392 128.843 174.367 128.843 169.401Z" fill="white"/>
</mask>
<g mask="url(#mask4_325_3485)">
<path d="M129.26 103.578H110.583V178.422H129.26V103.578Z" fill="#0083CA"/>
</g>
<mask id="mask5_325_3485" style="mask-type:luminance" maskUnits="userSpaceOnUse" x="69" y="0" width="104" height="104">
<path d="M172.378 0H69V103.655H172.378V0Z" fill="white"/>
</mask>
<g mask="url(#mask5_325_3485)">
<path d="M172.302 51.7893C172.302 52.6398 172.279 53.4827 172.241 54.3332C172.203 55.1761 172.135 56.0266 172.052 56.8695C171.969 57.7125 171.863 58.5554 171.741 59.3907C171.62 60.226 171.476 61.0613 171.31 61.8966C171.143 62.7243 170.961 63.5521 170.757 64.3798C170.552 65.1999 170.325 66.02 170.083 66.8326C169.84 67.6451 169.575 68.4501 169.288 69.2474C169 70.0447 168.697 70.8345 168.379 71.6166C168.053 72.3988 167.712 73.1734 167.349 73.9403C166.985 74.7073 166.607 75.4667 166.213 76.2109C165.811 76.9551 165.395 77.6993 164.963 78.4207C164.531 79.1497 164.077 79.8635 163.607 80.5697C163.138 81.2759 162.653 81.967 162.146 82.6504C161.646 83.3338 161.123 84.0021 160.586 84.6552C160.048 85.3082 159.495 85.9537 158.927 86.5764C158.359 87.1991 157.776 87.8218 157.178 88.4141C156.579 89.014 155.966 89.5987 155.345 90.1682C154.716 90.7378 154.08 91.2921 153.429 91.8313C152.777 92.3704 152.111 92.8868 151.429 93.3956C150.748 93.9044 150.059 94.3904 149.354 94.8612C148.65 95.332 147.938 95.7876 147.211 96.2205C146.484 96.6533 145.749 97.071 145.007 97.4734C144.265 97.8759 143.508 98.2556 142.743 98.6125C141.978 98.977 141.205 99.3187 140.425 99.6453C139.645 99.9718 138.857 100.276 138.062 100.557C137.267 100.845 136.464 101.111 135.654 101.354C134.844 101.597 134.033 101.825 133.208 102.03C132.39 102.235 131.564 102.425 130.731 102.584C129.906 102.751 129.073 102.895 128.232 103.017C127.399 103.138 126.558 103.245 125.718 103.328C124.877 103.412 124.036 103.473 123.188 103.518C122.347 103.556 121.499 103.579 120.651 103.579C119.803 103.579 118.962 103.556 118.114 103.518C117.266 103.48 116.425 103.412 115.584 103.328C114.744 103.245 113.903 103.138 113.07 103.017C112.237 102.895 111.404 102.751 110.571 102.584C109.745 102.417 108.92 102.235 108.094 102.03C107.276 101.825 106.458 101.597 105.648 101.354C104.838 101.111 104.035 100.845 103.24 100.557C102.444 100.268 101.657 99.9642 100.877 99.6453C100.097 99.3187 99.3241 98.977 98.5592 98.6125C97.7943 98.248 97.0369 97.8683 96.2947 97.4734C95.5525 97.071 94.8103 96.6533 94.0908 96.2205C93.3638 95.7876 92.6519 95.332 91.9475 94.8612C91.2432 94.3904 90.554 93.9044 89.8724 93.3956C89.1908 92.8868 88.5243 92.3704 87.873 91.8313C87.2217 91.2921 86.578 90.7378 85.957 90.1682C85.3284 89.5987 84.7149 89.014 84.1242 88.4141C83.5259 87.8142 82.9427 87.1991 82.3747 86.5764C81.8067 85.9461 81.2539 85.3082 80.7161 84.6552C80.1784 84.0021 79.6634 83.3338 79.156 82.6504C78.6562 81.967 78.1639 81.2759 77.6943 80.5697C77.2247 79.8635 76.7704 79.1497 76.3387 78.4207C75.907 77.6917 75.4905 76.9551 75.0891 76.2109C74.6877 75.4667 74.309 74.7073 73.9531 73.9403C73.5895 73.1734 73.2487 72.3988 72.923 71.6166C72.5974 70.8345 72.2944 70.0447 72.0142 69.2474C71.7264 68.4501 71.4614 67.6451 71.219 66.8326C70.9767 66.02 70.7495 65.2075 70.545 64.3798C70.3405 63.5597 70.1512 62.7319 69.9921 61.8966C69.8255 61.0689 69.6816 60.2336 69.5604 59.3907C69.4393 58.5554 69.3332 57.7125 69.2499 56.8695C69.1666 56.0266 69.106 55.1837 69.0606 54.3332C69.0227 53.4903 69 52.6398 69 51.7893C69 50.9388 69.0227 50.0959 69.0606 49.2454C69.0985 48.4025 69.1666 47.552 69.2499 46.7091C69.3332 45.8662 69.4393 45.0233 69.5604 44.1879C69.6816 43.3526 69.8255 42.5173 69.9921 41.682C70.1587 40.8543 70.3405 40.0266 70.545 39.1988C70.7495 38.3711 70.9767 37.5586 71.219 36.746C71.4614 35.9335 71.7264 35.1286 72.0142 34.3312C72.302 33.5339 72.605 32.7441 72.923 31.962C73.2487 31.1798 73.5895 30.4052 73.9531 29.6383C74.3166 28.8713 74.6953 28.1119 75.0891 27.3677C75.4905 26.6235 75.907 25.8794 76.3387 25.1579C76.7704 24.4289 77.2247 23.7151 77.6943 23.0089C78.1639 22.3027 78.6486 21.6117 79.156 20.9282C79.6559 20.2448 80.1784 19.5765 80.7161 18.9235C81.2539 18.2704 81.8067 17.6249 82.3747 17.0022C82.9427 16.372 83.5259 15.7569 84.1242 15.1645C84.7225 14.5722 85.3359 13.9799 85.957 13.4104C86.5856 12.8409 87.2217 12.2865 87.873 11.7473C88.5243 11.2082 89.1908 10.6918 89.8724 10.183C90.554 9.68184 91.2432 9.18825 91.9475 8.71743C92.6519 8.24662 93.3638 7.79099 94.0908 7.35815C94.8179 6.9253 95.5525 6.50764 96.2947 6.10517C97.0369 5.7027 97.7943 5.32302 98.5592 4.95852C99.3241 4.59401 100.097 4.25229 100.877 3.92576C101.657 3.59923 102.444 3.29548 103.24 3.01451C104.035 2.73354 104.838 2.46016 105.648 2.21716C106.458 1.97416 107.269 1.74635 108.094 1.54132C108.912 1.33629 109.738 1.14644 110.571 0.986972C111.396 0.819909 112.229 0.675627 113.07 0.554127C113.903 0.432626 114.744 0.326313 115.584 0.242782C116.425 0.15925 117.266 0.0985003 118.114 0.0529377C118.962 0.00737504 119.803 -0.0078125 120.651 -0.0078125C121.499 -0.0078125 122.34 0.0149688 123.188 0.0529377C124.029 0.0909065 124.877 0.15925 125.718 0.242782C126.558 0.326313 127.399 0.432626 128.232 0.554127C129.065 0.675627 129.898 0.819909 130.731 0.986972C131.557 1.15403 132.382 1.33629 133.208 1.54132C134.026 1.74635 134.844 1.97416 135.654 2.21716C136.464 2.46016 137.267 2.72595 138.062 3.01451C138.857 3.30307 139.645 3.60682 140.425 3.92576C141.205 4.25229 141.978 4.59401 142.743 4.95852C143.508 5.32302 144.265 5.7027 145.007 6.10517C145.749 6.50764 146.492 6.9253 147.211 7.35815C147.938 7.79099 148.65 8.24662 149.354 8.71743C150.059 9.18825 150.748 9.67425 151.429 10.183C152.111 10.6842 152.777 11.2082 153.429 11.7473C154.08 12.2865 154.724 12.8409 155.345 13.4104C155.973 13.9799 156.587 14.5646 157.178 15.1645C157.776 15.7645 158.359 16.3795 158.927 17.0022C159.495 17.6249 160.048 18.2704 160.586 18.9235C161.123 19.5765 161.638 20.2448 162.146 20.9282C162.646 21.6117 163.138 22.3027 163.607 23.0089C164.077 23.7151 164.531 24.4289 164.963 25.1579C165.395 25.887 165.811 26.6235 166.213 27.3677C166.614 28.1119 166.993 28.8713 167.349 29.6383C167.712 30.4052 168.053 31.1798 168.379 31.962C168.704 32.7441 169.007 33.5339 169.288 34.3312C169.575 35.1286 169.84 35.9335 170.083 36.746C170.325 37.5586 170.552 38.3711 170.757 39.1988C170.961 40.019 171.151 40.8467 171.31 41.682C171.476 42.5097 171.62 43.345 171.741 44.1879C171.863 45.0233 171.969 45.8662 172.052 46.7091C172.135 47.552 172.196 48.3949 172.241 49.2454C172.279 50.0883 172.302 50.9388 172.302 51.7893Z" fill="#0083CA"/>
</g>
<path d="M128.226 51.264V54.976H125.858V60H121.57V54.976H112.322C111.895 54.976 111.532 54.7627 111.234 54.336C110.956 53.9093 110.818 53.4293 110.818 52.896C110.818 52.32 110.967 51.8187 111.266 51.392L121.41 37.632C121.794 37.0987 122.508 36.832 123.554 36.832C124.194 36.832 124.738 36.9813 125.186 37.28C125.634 37.5787 125.858 38.016 125.858 38.592V51.264H128.226ZM116.066 51.264H121.57V43.648L116.066 51.264Z" fill="white"/>
</svg>
