<svg width="240" height="247" viewBox="0 0 240 247" fill="none" xmlns="http://www.w3.org/2000/svg">
<path d="M97.6223 222.948H91.5203V226.512H97.0283V228.33H91.5203V232.2H97.4603V234H89.4503V222.048C89.4503 221.76 89.5403 221.538 89.7203 221.382C89.9123 221.226 90.1403 221.148 90.4043 221.148H97.6223V222.948ZM104.859 224.766C105.783 224.766 106.491 225.018 106.983 225.522C107.487 226.014 107.739 226.722 107.739 227.646V234H105.741V228.096C105.741 227.508 105.633 227.088 105.417 226.836C105.201 226.584 104.859 226.458 104.391 226.458C103.515 226.458 102.585 226.842 101.601 227.61V234H99.6029V225H101.493V226.08C102.621 225.204 103.743 224.766 104.859 224.766ZM115.479 231.894L116.163 233.352C115.383 233.916 114.507 234.198 113.535 234.198C112.587 234.198 111.867 233.916 111.375 233.352C110.883 232.776 110.637 231.99 110.637 230.994V226.44H109.179V225H110.637V222.21H112.581V225H115.641V226.44H112.581V230.94C112.581 231.456 112.713 231.834 112.977 232.074C113.253 232.302 113.571 232.416 113.931 232.416C114.447 232.416 114.963 232.242 115.479 231.894ZM122.143 224.766C122.587 224.766 123.001 224.856 123.385 225.036L123.007 226.656C122.587 226.536 122.245 226.476 121.981 226.476C121.057 226.476 120.199 226.872 119.407 227.664V234H117.445V225H119.353V226.098C120.145 225.21 121.075 224.766 122.143 224.766ZM128.313 232.56C129.297 232.56 130.221 232.212 131.085 231.516L131.985 232.83C130.917 233.742 129.657 234.198 128.205 234.198C126.909 234.198 125.853 233.79 125.037 232.974C124.233 232.146 123.831 231.03 123.831 229.626C123.831 228.258 124.239 227.106 125.055 226.17C125.883 225.234 127.023 224.766 128.475 224.766C129.471 224.766 130.329 225.042 131.049 225.594C131.769 226.134 132.129 226.896 132.129 227.88C132.129 228.6 131.907 229.182 131.463 229.626C131.019 230.07 130.371 230.292 129.519 230.292H125.721C125.961 231.804 126.825 232.56 128.313 232.56ZM128.421 226.278C127.701 226.278 127.089 226.512 126.585 226.98C126.093 227.448 125.793 228.09 125.685 228.906H129.159C129.519 228.906 129.801 228.81 130.005 228.618C130.209 228.426 130.311 228.15 130.311 227.79C130.311 227.37 130.137 227.016 129.789 226.728C129.453 226.428 128.997 226.278 128.421 226.278ZM142.175 225.198C141.863 225.546 141.431 225.87 140.879 226.17C141.227 226.65 141.401 227.214 141.401 227.862C141.401 228.786 141.047 229.518 140.339 230.058C139.643 230.598 138.707 230.868 137.531 230.868C137.015 230.868 136.547 230.814 136.127 230.706C135.803 230.862 135.641 231.078 135.641 231.354C135.641 231.606 135.785 231.798 136.073 231.93C136.373 232.05 136.823 232.146 137.423 232.218C139.007 232.422 140.009 232.602 140.429 232.758C141.461 233.178 141.977 233.892 141.977 234.9C141.977 235.824 141.581 236.526 140.789 237.006C139.997 237.498 138.875 237.744 137.423 237.744C136.127 237.744 135.101 237.522 134.345 237.078C133.601 236.634 133.229 236.004 133.229 235.188C133.229 234.276 133.715 233.604 134.687 233.172C134.171 232.824 133.913 232.344 133.913 231.732C133.913 231.096 134.237 230.574 134.885 230.166C134.129 229.638 133.751 228.888 133.751 227.916C133.751 226.98 134.099 226.236 134.795 225.684C135.491 225.12 136.421 224.838 137.585 224.838C138.353 224.838 139.037 224.97 139.637 225.234C140.285 224.934 140.825 224.544 141.257 224.064L142.175 225.198ZM137.549 229.446C138.185 229.446 138.689 229.308 139.061 229.032C139.433 228.756 139.619 228.366 139.619 227.862C139.619 227.358 139.433 226.968 139.061 226.692C138.689 226.404 138.185 226.26 137.549 226.26C136.913 226.26 136.415 226.404 136.055 226.692C135.695 226.98 135.515 227.382 135.515 227.898C135.515 228.93 136.193 229.446 137.549 229.446ZM138.125 233.946C137.105 233.826 136.433 233.736 136.109 233.676C135.413 234 135.065 234.426 135.065 234.954C135.065 235.842 135.875 236.286 137.495 236.286C139.223 236.286 140.087 235.866 140.087 235.026C140.087 234.678 139.931 234.432 139.619 234.288C139.319 234.144 138.821 234.03 138.125 233.946ZM147.092 224.766C148.292 224.766 149.24 225.09 149.936 225.738C150.632 226.386 150.98 227.31 150.98 228.51V234H149.198V232.632C148.514 233.688 147.494 234.216 146.138 234.216C145.214 234.216 144.464 233.964 143.888 233.46C143.324 232.944 143.042 232.272 143.042 231.444C143.042 230.412 143.45 229.662 144.266 229.194C145.082 228.726 146.138 228.492 147.434 228.492C147.95 228.492 148.52 228.534 149.144 228.618V228.42C149.144 227.76 148.958 227.262 148.586 226.926C148.214 226.578 147.686 226.404 147.002 226.404C146.03 226.404 145.106 226.758 144.23 227.466L143.294 226.206C144.29 225.246 145.556 224.766 147.092 224.766ZM146.552 232.722C147.344 232.722 147.962 232.458 148.406 231.93C148.85 231.39 149.096 230.694 149.144 229.842C148.52 229.782 148.004 229.752 147.596 229.752C145.868 229.752 145.004 230.286 145.004 231.354C145.004 231.762 145.142 232.092 145.418 232.344C145.706 232.596 146.084 232.722 146.552 232.722Z" fill="#005988"/>
<mask id="mask0_325_3517" style="mask-type:luminance" maskUnits="userSpaceOnUse" x="0" y="140" width="240" height="57">
<path d="M240 140.902H0V196.902H240V140.902Z" fill="white"/>
</mask>
<g mask="url(#mask0_325_3517)">
<mask id="mask1_325_3517" style="mask-type:luminance" maskUnits="userSpaceOnUse" x="0" y="140" width="240" height="57">
<path d="M221.619 196.902H0.118958L18.4409 168.906L0.118958 140.902H221.619L239.911 168.906L221.619 196.902Z" fill="white"/>
</mask>
<g mask="url(#mask1_325_3517)">
<path d="M240.297 140.686H0V197.127H240.297V140.686Z" fill="#005988"/>
</g>
</g>
<mask id="mask2_325_3517" style="mask-type:luminance" maskUnits="userSpaceOnUse" x="113" y="161" width="16" height="16">
<path d="M128.177 161.816H113V176.958H128.177V161.816Z" fill="white"/>
</mask>
<g mask="url(#mask2_325_3517)">
<mask id="mask3_325_3517" style="mask-type:luminance" maskUnits="userSpaceOnUse" x="113" y="161" width="16" height="16">
<path d="M127.543 172.289C129.132 168.441 127.31 164.03 123.473 162.437C119.635 160.843 115.236 162.67 113.647 166.518C112.057 170.365 113.879 174.776 117.717 176.37C121.554 177.964 125.953 176.137 127.543 172.289Z" fill="white"/>
</mask>
<g mask="url(#mask3_325_3517)">
<path d="M129.927 103.58H111.251V178.424H129.927V103.58Z" fill="white"/>
</g>
</g>
<mask id="mask4_325_3517" style="mask-type:luminance" maskUnits="userSpaceOnUse" x="111" y="103" width="18" height="76">
<path d="M128.949 103.578H111V178.422H128.949V103.578Z" fill="white"/>
</mask>
<g mask="url(#mask4_325_3517)">
<mask id="mask5_325_3517" style="mask-type:luminance" maskUnits="userSpaceOnUse" x="111" y="103" width="18" height="76">
<path d="M113.863 169.401C113.863 166.03 116.62 163.265 119.982 163.265C123.345 163.265 126.101 166.03 126.101 169.401C126.101 172.773 123.345 175.537 119.982 175.537C116.62 175.582 113.863 172.818 113.863 169.401ZM128.896 169.401C128.896 164.951 125.624 161.253 121.376 160.554V103.586H118.574V160.6C114.325 161.253 111.053 165.004 111.053 169.447C111.053 174.413 115.067 178.392 119.975 178.392C124.882 178.392 128.896 174.367 128.896 169.401Z" fill="white"/>
</mask>
<g mask="url(#mask5_325_3517)">
<path d="M129.313 103.578H110.637V178.422H129.313V103.578Z" fill="#005988"/>
</g>
</g>
<mask id="mask6_325_3517" style="mask-type:luminance" maskUnits="userSpaceOnUse" x="69" y="0" width="104" height="104">
<path d="M172.378 0H69V103.655H172.378V0Z" fill="white"/>
</mask>
<g mask="url(#mask6_325_3517)">
<path d="M172.294 51.7893C172.294 52.6398 172.271 53.4827 172.234 54.3332C172.196 55.1761 172.128 56.0266 172.044 56.8695C171.961 57.7125 171.855 58.5554 171.734 59.3907C171.613 60.226 171.469 61.0613 171.302 61.8966C171.135 62.7319 170.954 63.5521 170.749 64.3798C170.545 65.1999 170.317 66.02 170.075 66.8326C169.833 67.6451 169.568 68.4501 169.28 69.2474C168.992 70.0447 168.689 70.8345 168.371 71.6166C168.045 72.3988 167.705 73.1734 167.341 73.9403C166.978 74.7073 166.599 75.4667 166.198 76.2109C165.796 76.9551 165.38 77.6993 164.948 78.4207C164.516 79.1497 164.062 79.8635 163.592 80.5697C163.123 81.2759 162.638 81.967 162.131 82.6504C161.631 83.3338 161.108 84.0021 160.57 84.6552C160.033 85.3082 159.48 85.9537 158.912 86.5764C158.344 87.1991 157.761 87.8218 157.162 88.4141C156.564 89.014 155.951 89.5987 155.33 90.1682C154.709 90.7378 154.065 91.2921 153.414 91.8313C152.762 92.3704 152.096 92.8868 151.414 93.3956C150.733 93.8968 150.043 94.3904 149.339 94.8612C148.635 95.332 147.923 95.7876 147.196 96.2205C146.469 96.6533 145.734 97.071 144.992 97.4734C144.25 97.8759 143.492 98.2556 142.727 98.6125C141.963 98.977 141.19 99.3187 140.41 99.6453C139.63 99.9718 138.842 100.276 138.047 100.557C137.252 100.845 136.449 101.111 135.639 101.354C134.828 101.597 134.018 101.825 133.192 102.03C132.374 102.235 131.549 102.425 130.716 102.584C129.89 102.751 129.057 102.895 128.217 103.017C127.384 103.138 126.543 103.245 125.702 103.328C124.862 103.412 124.021 103.473 123.173 103.518C122.332 103.556 121.484 103.579 120.636 103.579C119.787 103.579 118.947 103.556 118.099 103.518C117.258 103.48 116.41 103.412 115.569 103.328C114.728 103.245 113.888 103.138 113.055 103.017C112.222 102.895 111.389 102.751 110.555 102.584C109.73 102.417 108.904 102.235 108.079 102.03C107.261 101.825 106.443 101.597 105.633 101.354C104.822 101.111 104.02 100.845 103.224 100.557C102.429 100.268 101.641 99.9642 100.861 99.6453C100.081 99.3187 99.3088 98.977 98.5439 98.6125C97.779 98.248 97.0216 97.8683 96.2794 97.4734C95.5372 97.071 94.7951 96.6533 94.0756 96.2205C93.3562 95.7876 92.6366 95.332 91.9323 94.8612C91.228 94.3904 90.5388 93.9044 89.8572 93.3956C89.1756 92.8868 88.5091 92.3704 87.8578 91.8313C87.2065 91.2921 86.5628 90.7378 85.9418 90.1682C85.3132 89.5987 84.6997 89.014 84.109 88.4141C83.5106 87.8142 82.9274 87.1991 82.3594 86.5764C81.7914 85.9461 81.2386 85.3082 80.7009 84.6552C80.1632 84.0021 79.6481 83.3338 79.1407 82.6504C78.6409 81.967 78.1487 81.2759 77.6791 80.5697C77.2095 79.8635 76.7551 79.1497 76.3234 78.4207C75.8917 77.6917 75.4752 76.9551 75.0738 76.2109C74.6724 75.4667 74.2937 74.7073 73.9378 73.9403C73.5742 73.1734 73.2335 72.3988 72.9078 71.6166C72.5821 70.8345 72.2792 70.0447 71.999 69.2474C71.7112 68.4501 71.4461 67.6451 71.2038 66.8326C70.9614 66.02 70.7342 65.2075 70.5297 64.3798C70.3252 63.5597 70.1359 62.7319 69.9769 61.8966C69.8178 61.0613 69.6664 60.2336 69.5452 59.3907C69.4241 58.5554 69.318 57.7125 69.2347 56.8695C69.1514 56.0266 69.0908 55.1837 69.0454 54.3332C69.0075 53.4903 68.9848 52.6398 68.9848 51.7893C68.9848 50.9388 69.0075 50.0959 69.0454 49.2454C69.0832 48.3949 69.1514 47.552 69.2347 46.7091C69.318 45.8662 69.4241 45.0233 69.5452 44.1879C69.6664 43.3526 69.8103 42.5173 69.9769 41.682C70.1435 40.8543 70.3252 40.0266 70.5297 39.1988C70.7342 38.3787 70.9614 37.5586 71.2038 36.746C71.4461 35.9335 71.7112 35.1286 71.999 34.3312C72.2868 33.5339 72.5897 32.7441 72.9078 31.962C73.2335 31.1798 73.5742 30.4052 73.9378 29.6383C74.3013 28.8713 74.68 28.1119 75.0738 27.3677C75.4752 26.6235 75.8917 25.8794 76.3234 25.1579C76.7551 24.4289 77.2095 23.7151 77.6791 23.0089C78.1487 22.3027 78.6333 21.6117 79.1407 20.9282C79.6406 20.2448 80.1632 19.5765 80.7009 18.9235C81.2386 18.2704 81.7914 17.6249 82.3594 17.0022C82.9274 16.372 83.5106 15.7569 84.109 15.1645C84.7073 14.5646 85.3207 13.9799 85.9418 13.4104C86.5704 12.8409 87.2065 12.2865 87.8578 11.7473C88.5091 11.2082 89.1756 10.6918 89.8572 10.183C90.5388 9.68184 91.228 9.18825 91.9323 8.71743C92.6366 8.24662 93.3486 7.79099 94.0756 7.35815C94.8027 6.9253 95.5372 6.50764 96.2794 6.10517C97.0216 5.7027 97.779 5.32302 98.5439 4.95852C99.3088 4.59401 100.081 4.25229 100.861 3.92576C101.641 3.59923 102.429 3.29548 103.224 3.01451C104.02 2.72595 104.822 2.46016 105.633 2.21716C106.443 1.97416 107.253 1.74635 108.079 1.54132C108.897 1.33629 109.722 1.14644 110.555 0.986972C111.381 0.819909 112.214 0.675627 113.055 0.554127C113.888 0.432626 114.728 0.326313 115.569 0.242782C116.41 0.15925 117.25 0.0985003 118.099 0.0529377C118.939 0.0149688 119.787 -0.0078125 120.636 -0.0078125C121.484 -0.0078125 122.325 0.0149688 123.173 0.0529377C124.021 0.0909065 124.862 0.15925 125.702 0.242782C126.543 0.326313 127.384 0.432626 128.217 0.554127C129.05 0.675627 129.883 0.819909 130.716 0.986972C131.541 1.15403 132.367 1.33629 133.192 1.54132C134.01 1.74635 134.828 1.97416 135.639 2.21716C136.449 2.46016 137.252 2.72595 138.047 3.01451C138.842 3.30307 139.63 3.60682 140.41 3.92576C141.19 4.2447 141.963 4.59401 142.727 4.95852C143.492 5.32302 144.25 5.7027 144.992 6.10517C145.734 6.50764 146.476 6.9253 147.196 7.35815C147.923 7.79099 148.635 8.24662 149.339 8.71743C150.043 9.18825 150.733 9.67425 151.414 10.183C152.096 10.6842 152.762 11.2082 153.414 11.7473C154.065 12.2865 154.709 12.8409 155.33 13.4104C155.951 13.9799 156.572 14.5646 157.162 15.1645C157.761 15.7645 158.344 16.3795 158.912 17.0022C159.48 17.6249 160.033 18.2704 160.57 18.9235C161.108 19.5765 161.623 20.2448 162.131 20.9282C162.63 21.6117 163.123 22.3027 163.592 23.0089C164.062 23.7151 164.516 24.4289 164.948 25.1579C165.38 25.887 165.796 26.6235 166.198 27.3677C166.599 28.1119 166.978 28.8713 167.341 29.6383C167.705 30.4052 168.045 31.1798 168.371 31.962C168.697 32.7441 169 33.5339 169.28 34.3312C169.56 35.1286 169.833 35.9335 170.075 36.746C170.317 37.5586 170.545 38.3711 170.749 39.1988C170.954 40.019 171.143 40.8467 171.302 41.682C171.469 42.5097 171.613 43.345 171.734 44.1879C171.855 45.0233 171.961 45.8662 172.044 46.7091C172.128 47.552 172.188 48.3949 172.234 49.2454C172.271 50.0883 172.294 50.9388 172.294 51.7893Z" fill="#005988"/>
</g>
<path d="M120.261 45.92C122.544 45.92 124.379 46.56 125.765 47.84C127.152 49.12 127.845 50.8267 127.845 52.96C127.845 55.2427 127.056 57.056 125.477 58.4C123.899 59.7227 121.968 60.384 119.685 60.384C118.107 60.384 116.656 60.0533 115.333 59.392C114.032 58.7093 112.987 57.7387 112.197 56.48L115.269 54.112C116.507 55.584 117.925 56.32 119.525 56.32C120.656 56.32 121.573 56.0107 122.277 55.392C122.981 54.7733 123.333 53.984 123.333 53.024C123.333 52.0427 122.971 51.264 122.245 50.688C121.541 50.0907 120.635 49.792 119.525 49.792C118.352 49.792 117.189 50.1653 116.037 50.912L113.317 48.8V38.976C113.317 37.76 113.936 37.152 115.173 37.152H126.533V40.896H117.445V46.4C118.299 46.08 119.237 45.92 120.261 45.92Z" fill="white"/>
</svg>
