<svg width="163" height="60" viewBox="0 0 163 60" fill="none" xmlns="http://www.w3.org/2000/svg">
<path fill-rule="evenodd" clip-rule="evenodd" d="M44.5688 8.55024C46.9243 8.55024 48.8346 6.63988 48.8346 4.2844C48.8346 1.92891 46.9243 0.0185547 44.5688 0.0185547C42.2133 0.0185547 40.3029 1.92891 40.3029 4.2844C40.3029 6.63988 42.2133 8.55024 44.5688 8.55024Z" fill="white"/>
<path fill-rule="evenodd" clip-rule="evenodd" d="M157.558 8.55024C159.913 8.55024 161.824 6.63988 161.824 4.2844C161.824 1.92891 159.913 0.0185547 157.558 0.0185547C155.202 0.0185547 153.292 1.92891 153.292 4.2844C153.292 6.63988 155.202 8.55024 157.558 8.55024Z" fill="white"/>
<path fill-rule="evenodd" clip-rule="evenodd" d="M26.9119 20.272C28.7852 19.5672 30.2504 18.4173 31.3076 16.8408C32.3833 15.2643 32.9212 13.5209 32.9212 11.5734C32.9212 9.4776 32.4389 7.71562 31.493 6.30604C30.5471 4.89645 29.323 3.76508 27.8393 2.91191C26.3555 2.05874 24.6862 1.44668 22.8315 1.09429C21.4961 0.834629 20.1978 0.667705 18.8995 0.593516C18.3988 0.556422 17.8794 0.556422 17.3787 0.556422H0.760433C0.352396 0.556422 0 0.89027 0 1.31685V5.65689C0 6.06492 0.333849 6.41732 0.760433 6.41732H3.5796V41.7867C3.5796 42.306 4.00618 42.7326 4.5255 42.7326H17.0819C17.6754 42.7326 18.2875 42.7326 18.8995 42.677C20.2906 42.6028 21.7187 42.4359 23.1839 42.1948C25.2983 41.8424 27.2458 41.2118 29.0077 40.2844C30.7697 39.3756 32.2164 38.1144 33.3478 36.5008C34.4791 34.8872 35.0355 32.847 35.0355 30.3431C35.0355 28.0804 34.3493 26.0216 32.9768 24.1855C31.6043 22.3308 29.5641 21.0325 26.8748 20.2906M11.3138 6.5286H17.0263C17.694 6.5286 18.3246 6.5657 18.8995 6.62134C20.4946 6.80681 21.7743 7.25194 22.7388 7.93818C24.0556 8.88409 24.7048 10.2937 24.7048 12.1669C24.7048 13.2056 24.5008 14.0773 24.0742 14.7821C23.6662 15.5054 23.0912 16.0618 22.3493 16.507C21.6074 16.9521 20.7357 17.2674 19.7342 17.4529C19.456 17.5085 19.1777 17.5456 18.8995 17.5827C18.1391 17.694 17.323 17.7496 16.4884 17.7496H11.3138V6.5286ZM24.2411 34.9799C22.9057 36.0371 21.1252 36.6306 18.9181 36.7419C18.6399 36.7419 18.3431 36.7604 18.0464 36.7604H11.3138V23.7218H18.1577C18.4173 23.7218 18.6584 23.7218 18.8995 23.7218C20.9583 23.8331 22.6832 24.3524 24.1113 25.3169C25.7063 26.3926 26.4853 28.0062 26.4853 30.1948C26.4853 32.1793 25.7249 33.7744 24.2226 34.9614" fill="white"/>
<path fill-rule="evenodd" clip-rule="evenodd" d="M80.4946 17.8238C79.289 16.4699 77.7682 15.4312 75.932 14.6708C74.1144 13.9104 72 13.5394 69.626 13.5394C67.2519 13.5394 65.1376 13.9104 63.3199 14.6708C61.5023 15.4312 59.9815 16.4699 58.7573 17.8238C57.5518 19.1777 56.643 20.7543 56.0124 22.5533C55.4003 24.3524 55.085 26.3369 55.085 28.4699C55.085 33.0325 56.3091 36.6677 58.7388 39.357C61.187 42.0649 64.8037 43.4003 69.6074 43.4003C74.4111 43.4003 78.0278 42.0464 80.4761 39.357C82.9243 36.6677 84.1298 33.0325 84.1298 28.4699C84.1298 26.3184 83.8145 24.3524 83.2025 22.5533C82.5904 20.7543 81.6816 19.1777 80.4575 17.8238M74.6522 35.3138C73.6322 37.0387 71.9629 37.9104 69.626 37.9104C67.289 37.9104 65.6012 37.0387 64.5997 35.3138C63.5796 33.5889 63.0788 31.3076 63.0788 28.4884C63.0788 27.2643 63.1901 26.0773 63.4312 24.9088C63.6723 23.7589 64.0618 22.7574 64.5997 21.9042C65.1376 21.051 65.8053 20.3648 66.6213 19.8454C67.4374 19.3261 68.439 19.0665 69.626 19.0665C70.813 19.0665 71.8145 19.3261 72.6306 19.8454C73.4467 20.3648 74.1144 21.051 74.6522 21.9042C75.1901 22.7574 75.5796 23.7589 75.8207 24.9088C76.0618 26.0587 76.1731 27.2458 76.1731 28.4884C76.1731 31.3076 75.6723 33.5703 74.6522 35.3138Z" fill="white"/>
<path fill-rule="evenodd" clip-rule="evenodd" d="M46.8501 13.5394H39.4312C39.0232 13.5394 38.6708 13.8733 38.6708 14.2999V18.6955C38.6708 19.1036 39.0046 19.456 39.4312 19.456H42.2504V41.7682C42.2504 42.2875 42.677 42.7141 43.1963 42.7141H48.7419C49.2612 42.7141 49.6878 42.2875 49.6878 41.7682V16.3957C49.6878 14.8192 48.408 13.558 46.8501 13.558" fill="white"/>
<path fill-rule="evenodd" clip-rule="evenodd" d="M159.839 13.5394H152.439C152.031 13.5394 151.679 13.8733 151.679 14.2999V18.6955C151.679 19.1036 152.012 19.456 152.439 19.456H155.258V41.7682C155.258 42.2875 155.685 42.7141 156.204 42.7141H161.75C162.269 42.7141 162.696 42.2875 162.696 41.7682V16.3957C162.696 14.8192 161.416 13.558 159.839 13.558" fill="white"/>
<path fill-rule="evenodd" clip-rule="evenodd" d="M105.07 26.5595L97.6136 15.4312C96.6306 13.9475 94.9985 13.6322 93.2179 13.6322H88.6739C88.2659 13.6322 87.9135 13.966 87.9135 14.3926V18.677C87.9135 19.085 88.2473 19.4374 88.6739 19.4374H91.6414L97.3725 27.8764L91.289 36.8532H88.0247C87.6167 36.8532 87.2643 37.187 87.2643 37.6136V41.898C87.2643 42.306 87.5982 42.6584 88.0247 42.6584H92.1422C93.9042 42.6584 95.5549 42.3431 96.5193 40.8779L105.032 28.2659C105.366 27.7651 105.385 27.0974 105.032 26.5966" fill="white"/>
<path fill-rule="evenodd" clip-rule="evenodd" d="M108.223 23.3509L110.893 19.4189H114.158C114.584 19.4189 114.9 19.0665 114.9 18.677V14.3926C114.9 13.9846 114.566 13.6507 114.158 13.6507H108.964C107.611 13.6507 106.349 14.3369 105.607 15.4498L103.66 18.3988L106.98 23.3694C107.277 23.8145 107.944 23.8145 108.241 23.3694" fill="white"/>
<path fill-rule="evenodd" clip-rule="evenodd" d="M115.011 36.8532H111.988L108.278 31.3447C107.981 30.8995 107.314 30.8995 107.017 31.3447L103.345 36.7975L105.459 39.9876C106.442 41.4343 108.686 42.6584 110.448 42.6584H115.029C115.456 42.6584 115.771 42.306 115.771 41.9165V37.6322C115.771 37.2241 115.437 36.8903 115.029 36.8903" fill="white"/>
<path fill-rule="evenodd" clip-rule="evenodd" d="M137.267 26.5595L129.811 15.4312C128.828 13.9475 127.196 13.6322 125.416 13.6322H120.872C120.464 13.6322 120.111 13.966 120.111 14.3926V18.677C120.111 19.085 120.445 19.4374 120.872 19.4374H123.839L129.57 27.8764L123.487 36.8532H120.223C119.815 36.8532 119.462 37.187 119.462 37.6136V41.898C119.462 42.306 119.796 42.6584 120.223 42.6584H124.34C126.102 42.6584 127.753 42.3431 128.717 40.8779L137.23 28.2659C137.564 27.7651 137.583 27.0974 137.23 26.5966" fill="white"/>
<path fill-rule="evenodd" clip-rule="evenodd" d="M140.42 23.3509L143.091 19.4189H146.356C146.782 19.4189 147.097 19.0665 147.097 18.677V14.3926C147.097 13.9846 146.764 13.6507 146.356 13.6507H141.162C139.808 13.6507 138.566 14.3369 137.805 15.4498L135.858 18.3988L139.178 23.3694C139.475 23.8145 140.142 23.8145 140.439 23.3694" fill="white"/>
<path fill-rule="evenodd" clip-rule="evenodd" d="M147.209 36.8532H144.185L140.476 31.3447C140.179 30.8995 139.512 30.8995 139.215 31.3447L135.543 36.7975L137.657 39.9876C138.64 41.4343 140.884 42.6584 142.646 42.6584H147.227C147.654 42.6584 147.969 42.306 147.969 41.9165V37.6322C147.969 37.2241 147.635 36.8903 147.227 36.8903" fill="white"/>
<path d="M7.80835 57.5147H3.63524V50.1515H7.80835V51.153H4.8408V53.1747H7.62288V54.1762H4.8408V56.4946H7.80835V57.5147Z" fill="white"/>
<path d="M14.9675 57.5147H13.5951L11.7403 54.4915L9.88563 57.5147H8.58733L11.0355 53.694L8.75425 50.1515H10.0896L11.796 52.9336L13.5023 50.1515H14.8006L12.5008 53.7125L14.9675 57.5147Z" fill="white"/>
<path d="M19.2519 51.0788C18.5657 51.0788 18.0093 51.32 17.6198 51.8207C17.2303 52.303 17.0263 52.9892 17.0263 53.8609C17.0263 54.7326 17.2117 55.456 17.6012 55.9196C17.9907 56.3833 18.5286 56.6244 19.2519 56.6244C19.5672 56.6244 19.864 56.5873 20.1607 56.5317C20.4575 56.4761 20.7543 56.3833 21.0696 56.2906V57.3292C20.4946 57.5518 19.8269 57.6631 19.1036 57.6631C18.0278 57.6631 17.1932 57.3292 16.6182 56.6801C16.0433 56.0309 15.7465 55.085 15.7465 53.8795C15.7465 53.119 15.8949 52.4513 16.1731 51.8578C16.4513 51.2829 16.8594 50.8377 17.3972 50.541C17.9351 50.2442 18.5471 50.0773 19.2705 50.0773C20.0309 50.0773 20.7172 50.2442 21.3663 50.5595L20.9397 51.5611C20.6986 51.4498 20.4204 51.3385 20.1422 51.2458C19.864 51.153 19.5672 51.1159 19.2705 51.1159" fill="white"/>
<path d="M26.9675 57.5147H22.7944V50.1515H26.9675V51.153H24.0186V53.1747H26.7821V54.1762H24.0186V56.4946H26.9675V57.5147Z" fill="white"/>
<path d="M28.711 57.5147V50.1515H29.9165V56.4761H33.0325V57.5147H28.711Z" fill="white"/>
<path d="M38.6337 57.5147H34.4606V50.1329H38.6337V51.153H35.6662V53.1561H38.4482V54.1577H35.6662V56.4761H38.6337V57.5147ZM37.6692 49.558C37.2612 49.3169 36.8717 49.0016 36.5193 48.6492C36.1669 49.0016 35.796 49.2983 35.3879 49.558H34.5904V49.4281C35.2396 48.7604 35.6662 48.2597 35.8702 47.9073H37.187C37.391 48.2782 37.8362 48.779 38.4853 49.4281V49.558H37.6692Z" fill="white"/>
<path d="M46.4977 57.5147H45.0139L41.3787 51.6353H41.3416V51.9691C41.4158 52.5997 41.4343 53.1747 41.4343 53.6754V57.5147H40.34V50.1329H41.8053L45.422 55.9753H45.459C45.459 55.9753 45.4405 55.6229 45.422 55.1221C45.4034 54.6399 45.3849 54.2504 45.3849 53.9907V50.1329H46.4977V57.5147Z" fill="white"/>
<path d="M51.728 51.0788C51.0417 51.0788 50.4853 51.32 50.0958 51.8207C49.7063 52.303 49.5023 52.9892 49.5023 53.8609C49.5023 54.7326 49.6878 55.456 50.0773 55.9196C50.4668 56.3833 51.0046 56.6244 51.728 56.6244C52.0433 56.6244 52.34 56.5873 52.6368 56.5317C52.9335 56.4761 53.2303 56.3833 53.5456 56.2906V57.3292C52.9706 57.5518 52.3215 57.6631 51.5796 57.6631C50.5039 57.6631 49.6692 57.3292 49.0943 56.6801C48.5193 56.0309 48.2226 55.085 48.2226 53.8795C48.2226 53.119 48.3709 52.4513 48.6492 51.8578C48.9274 51.2829 49.3354 50.8377 49.8733 50.541C50.4111 50.2442 51.0232 50.0773 51.7465 50.0773C52.507 50.0773 53.1932 50.2442 53.8424 50.5595L53.4158 51.5611C53.1747 51.4498 52.8965 51.3385 52.6182 51.2458C52.34 51.153 52.0433 51.1159 51.7465 51.1159" fill="white"/>
<path d="M56.4946 50.1515H55.289V57.5332H56.4946V50.1515Z" fill="white"/>
<path d="M63.153 57.5147L62.4111 55.4745H59.592L58.8686 57.5147H57.5889L60.3524 50.1144H61.6693L64.4328 57.5147H63.153ZM62.0958 54.4359L61.4096 52.4328C61.354 52.3029 61.2983 52.0804 61.2056 51.8022C61.1128 51.5054 61.0572 51.3014 61.0201 51.1716C60.9274 51.5796 60.7975 52.0433 60.6306 52.5255L59.9629 54.4544H62.1144L62.0958 54.4359Z" fill="white"/>
<path d="M72.5564 57.5147H68.3833V50.1515H72.5564V51.153H69.5889V53.1747H72.3709V54.1762H69.5889V56.4946H72.5564V57.5147Z" fill="white"/>
<path d="M77.4714 57.5147L75.3385 51.357H75.3014C75.357 52.2659 75.3941 53.1376 75.3941 53.9351V57.5147H74.2999V50.1329H76.0062L78.0464 55.9938H78.0835L80.1979 50.1329H81.9042V57.5147H80.7357V53.8609C80.7357 53.49 80.7357 53.0077 80.7543 52.4328C80.7728 51.8393 80.7914 51.4869 80.8099 51.357H80.7728L78.5657 57.4961H77.5085L77.4714 57.5147Z" fill="white"/>
<path d="M90.9552 57.5147H86.8006V50.1515H90.9552V51.153H88.0062V53.1747H90.7697V54.1762H88.0062V56.4946H90.9552V57.5147Z" fill="white"/>
<path d="M96.9459 55.5116C96.9459 56.1608 96.7048 56.6801 96.2411 57.051C95.7774 57.422 95.1098 57.6074 94.2751 57.6074C93.4405 57.6074 92.7543 57.4776 92.2349 57.2179V56.0866C92.5688 56.2535 92.9212 56.3648 93.3107 56.4575C93.6816 56.5502 94.034 56.5873 94.3679 56.5873C94.8501 56.5873 95.2025 56.4946 95.4251 56.3091C95.6476 56.1237 95.7589 55.8825 95.7589 55.5858C95.7589 55.3076 95.6476 55.085 95.4436 54.881C95.2396 54.6955 94.813 54.4544 94.1453 54.1948C93.4776 53.9165 92.9954 53.6198 92.7172 53.2674C92.439 52.915 92.3091 52.507 92.3091 52.0062C92.3091 51.3941 92.5317 50.9119 92.9583 50.5595C93.4034 50.2071 93.9784 50.0216 94.7203 50.0216C95.4622 50.0216 96.1298 50.17 96.8346 50.4853L96.4452 51.4683C95.796 51.1901 95.2025 51.0603 94.6832 51.0603C94.2937 51.0603 93.9969 51.153 93.7929 51.32C93.5889 51.4869 93.4962 51.7094 93.4962 51.9876C93.4962 52.1731 93.5332 52.34 93.626 52.4699C93.7002 52.5997 93.8485 52.7295 94.034 52.8594C94.2195 52.9892 94.5533 53.1376 95.0356 53.3416C95.5734 53.5642 95.9815 53.7867 96.2226 53.9722C96.4822 54.1577 96.6677 54.3802 96.779 54.6399C96.8903 54.881 96.9645 55.1778 96.9645 55.5116" fill="white"/>
<path d="M101.063 57.5147H99.8578V51.1716H97.7064V50.1515H103.233V51.1716H101.063V57.5147Z" fill="white"/>
<path d="M108.686 57.5147H104.513V50.1515H108.686V51.153H105.719V53.1747H108.501V54.1762H105.719V56.4946H108.686V57.5147Z" fill="white"/>
<path d="M111.635 54.5657V57.5147H110.43V50.1329H112.507C113.453 50.1329 114.158 50.3184 114.621 50.6708C115.085 51.0232 115.308 51.5611 115.308 52.2844C115.308 53.1932 114.825 53.8609 113.879 54.2504L115.957 57.5147H114.584L112.822 54.5657H111.635ZM111.635 53.5642H112.47C113.026 53.5642 113.434 53.4529 113.694 53.2489C113.954 53.0448 114.065 52.7295 114.065 52.3215C114.065 51.9135 113.935 51.5982 113.657 51.4312C113.379 51.2458 112.971 51.153 112.433 51.153H111.635V53.5642Z" fill="white"/>
<path d="M118.368 50.1515H117.162V57.5332H118.368V50.1515Z" fill="white"/>
<path d="M120.464 57.5147V50.1515H121.669V56.4761H124.785V57.5147H120.464Z" fill="white"/>
<path d="M127.419 50.1515H126.213V57.5332H127.419V50.1515Z" fill="white"/>
<path d="M134.133 57.5147H128.866V56.6801L132.575 51.1716H128.958V50.1515H134.04V50.9861L130.312 56.4761H134.133V57.5147Z" fill="white"/>
<path d="M140.161 57.5147L139.419 55.4745H136.6L135.876 57.5147H134.597L137.36 50.1144H138.677L141.441 57.5147H140.161ZM139.104 54.4359L138.417 52.4328C138.362 52.3029 138.287 52.0804 138.213 51.8022C138.121 51.5054 138.065 51.3014 138.028 51.1716C137.935 51.5796 137.805 52.0433 137.638 52.5255L136.971 54.4544H139.122L139.104 54.4359Z" fill="white"/>
<path d="M145.688 51.0788C145.002 51.0788 144.445 51.32 144.056 51.8207C143.666 52.303 143.462 52.9892 143.462 53.8609C143.462 54.7326 143.648 55.456 144.037 55.9196C144.427 56.3833 144.964 56.6244 145.688 56.6244C146.003 56.6244 146.3 56.5873 146.597 56.5317C146.893 56.4761 147.19 56.3833 147.505 56.2906V57.3292C146.93 57.5518 146.263 57.6631 145.539 57.6631C144.464 57.6631 143.629 57.3292 143.054 56.6801C142.479 56.0309 142.182 55.085 142.182 53.8795C142.182 53.119 142.331 52.4328 142.609 51.8578C142.887 51.2829 143.295 50.8377 143.833 50.541C144.371 50.2257 144.983 50.0773 145.706 50.0773C146.467 50.0773 147.153 50.2442 147.802 50.5595L147.376 51.5611C147.134 51.4498 146.856 51.3385 146.578 51.2458C146.3 51.153 146.003 51.1159 145.706 51.1159M146.393 58.8686C146.393 59.6105 145.873 59.9815 144.853 59.9815C144.631 59.9815 144.427 59.9629 144.241 59.9073V59.221C144.427 59.2767 144.631 59.2952 144.853 59.2952C145.039 59.2952 145.187 59.2581 145.28 59.2025C145.391 59.1468 145.447 59.0356 145.447 58.8872C145.447 58.609 145.15 58.4235 144.538 58.3308L144.964 57.4962H145.725L145.521 57.9413C145.799 58.0155 146.003 58.1268 146.151 58.2937C146.3 58.4606 146.374 58.6461 146.374 58.8686" fill="white"/>
<path d="M153.83 57.5147L153.088 55.4745H150.269L149.546 57.5147H148.266L151.029 50.1144H152.346L155.11 57.5147H153.83ZM152.42 49.558C152.272 49.558 152.142 49.5209 152.012 49.4652C151.883 49.4096 151.734 49.3354 151.604 49.2612C151.474 49.187 151.345 49.1314 151.215 49.0572C151.085 49.0016 150.974 48.9645 150.862 48.9645C150.584 48.9645 150.399 49.1499 150.306 49.5394H149.694C149.731 49.0757 149.861 48.7233 150.083 48.4637C150.306 48.2226 150.584 48.0927 150.937 48.0927C151.085 48.0927 151.215 48.1298 151.363 48.1855C151.493 48.2411 151.641 48.3153 151.771 48.3895C151.901 48.4637 152.031 48.5193 152.142 48.5935C152.272 48.6492 152.383 48.6863 152.495 48.6863C152.754 48.6863 152.94 48.5008 153.032 48.1113H153.663C153.626 48.5564 153.496 48.9088 153.274 49.1685C153.051 49.4281 152.773 49.558 152.42 49.558ZM152.773 54.4359L152.087 52.4328C152.031 52.3029 151.975 52.0804 151.883 51.8022C151.79 51.5054 151.734 51.3014 151.697 51.1716C151.604 51.5796 151.475 52.0433 151.308 52.5255L150.64 54.4544H152.791L152.773 54.4359Z" fill="white"/>
<path d="M162.77 53.8238C162.77 55.0294 162.473 55.9567 161.861 56.6244C161.267 57.2921 160.414 57.626 159.32 57.626C158.226 57.626 157.354 57.2921 156.76 56.643C156.167 55.9753 155.87 55.0479 155.87 53.8238C155.87 52.5997 156.167 51.6723 156.76 51.0232C157.354 50.374 158.207 50.0402 159.339 50.0402C160.47 50.0402 161.286 50.374 161.879 51.0417C162.473 51.7094 162.77 52.6368 162.77 53.8424M157.131 53.8238C157.131 54.7326 157.317 55.4189 157.688 55.8825C158.059 56.3462 158.597 56.5873 159.32 56.5873C160.043 56.5873 160.581 56.3462 160.934 55.8825C161.305 55.4189 161.471 54.7326 161.471 53.8053C161.471 52.8779 161.286 52.2102 160.934 51.7465C160.581 51.2829 160.025 51.0417 159.32 51.0417C158.615 51.0417 158.059 51.2829 157.688 51.7465C157.317 52.2102 157.131 52.8965 157.131 53.8053" fill="white"/>
</svg>
